<svg width="42" height="40" viewBox="0 0 42 40" fill="none" xmlns="http://www.w3.org/2000/svg">
<g clip-path="url(#clip0_30_31)">
<path d="M10.4274 27.3729C10.4274 27.8249 10.251 28.2345 9.89817 28.6017C9.54532 28.9689 9.15176 29.1525 8.71749 29.1525C8.22893 29.1525 7.80823 28.9689 7.45538 28.6017C7.10254 28.2345 6.92611 27.8249 6.92611 27.3729C6.92611 26.8644 7.10254 26.4266 7.45538 26.0593C7.80823 25.6921 8.22893 25.5085 8.71749 25.5085C9.15176 25.5085 9.54532 25.6921 9.89817 26.0593C10.251 26.4266 10.4274 26.8644 10.4274 27.3729ZM38.1938 2.0339H15.6387V2.20339C13.3588 2.82486 11.6217 3.98305 10.4274 5.67797C9.99317 5.67797 9.62675 5.38136 9.32819 4.78814C9.02962 4.19492 8.8532 3.58757 8.79891 2.9661L8.71749 2.0339H5.21616C5.21616 3.38983 5.51472 4.77401 6.11185 6.18644C6.70898 7.59887 7.63181 8.55932 8.88034 9.0678C8.88034 9.18079 8.8532 9.35028 8.79891 9.57627C8.74463 9.80226 8.71749 9.9435 8.71749 10C6.22042 11.1864 4.48333 13.1638 3.50621 15.9322C2.80052 17.9661 2.14911 20.2119 1.55198 22.6695C0.954855 25.1271 0.547724 27.0339 0.330588 28.3898C0.113451 29.7458 0.00488281 30.5367 0.00488281 30.7627C0.00488281 32.4576 0.35773 33.7288 1.06342 34.5763C1.87769 35.7627 3.26193 36.3559 5.21616 36.3559H10.4274C12.0017 36.3559 13.2638 35.8616 14.2138 34.8729C15.1637 33.8842 15.6387 32.5706 15.6387 30.9322C15.6387 29.5763 15.7473 27.7684 15.9644 25.5085H19.14C20.7143 25.5085 22.1257 25 23.3742 23.9831C24.6227 22.9661 25.4641 21.6667 25.8984 20.0847H27.7712C30.5397 20.0847 32.5211 18.8983 33.7153 16.5254H37.3795C37.9224 16.5254 38.1938 16.2147 38.1938 15.5932C38.1938 14.9718 37.9224 14.661 37.3795 14.661H34.611C34.611 14.4915 34.6382 14.1949 34.6925 13.7712C34.7467 13.3475 34.7739 13.0508 34.7739 12.8814H41.6951V0.254238H39.9852C38.7909 0.254238 38.1938 0.847458 38.1938 2.0339ZM15.6387 6.01695V16.1017C14.6073 15.7627 13.7659 15.1271 13.1145 14.1949C12.4631 13.2627 12.1374 12.2316 12.1374 11.1017C12.1374 9.91526 12.4631 8.85593 13.1145 7.92373C13.7659 6.99153 14.6073 6.35593 15.6387 6.01695ZM10.4274 32.7966H5.21616C4.4019 32.7966 3.8862 32.6554 3.66906 32.3729C3.56049 32.1469 3.50621 31.7232 3.50621 31.1017C4.15762 26.0734 5.2433 21.3842 6.76326 17.0339C7.3061 15.6215 8.06608 14.548 9.04319 13.8136C9.6946 16.1299 11.1331 17.8814 13.3588 19.0678C12.5445 24.3785 12.1374 28.3333 12.1374 30.9322C12.1374 32.1751 11.5674 32.7966 10.4274 32.7966ZM19.14 21.9492H16.5344C16.7515 20.9322 16.8601 20.3107 16.8601 20.0847H22.0714C21.5285 21.3277 20.5514 21.9492 19.14 21.9492ZM27.7712 16.5254H19.14V5.67797H31.2726V7.45763H23.4556C22.8585 7.45763 22.5599 7.76836 22.5599 8.38983C22.5599 8.9548 22.8585 9.23729 23.4556 9.23729H31.2726V11.1017H23.4556C22.8585 11.1017 22.5599 11.3842 22.5599 11.9492C22.5599 12.5706 22.8585 12.8814 23.4556 12.8814H31.2726C31.2726 13.8418 30.9333 14.6893 30.2547 15.4237C29.5762 16.1582 28.7483 16.5254 27.7712 16.5254ZM38.1938 9.23729H34.7739V5.67797H38.1938V9.23729Z" fill="white"/>
</g>
<defs>
<clipPath id="clip0_30_31">
<rect width="41.7" height="40" fill="white"/>
</clipPath>
</defs>
</svg>
