<svg width="40" height="40" viewBox="0 0 40 40" fill="none" xmlns="http://www.w3.org/2000/svg">
<path d="M7.69162 15.5183C7.69162 15.5183 6.5544 14.7028 7.35718 13.7828C7.35718 13.7828 6.09107 12.6644 7.1194 11.6139C7.1194 11.6139 6.43162 9.35111 8.30718 9.22C8.30718 9.22 8.09051 6.95778 10.5738 7.22111C10.5738 7.22111 11.9633 6.22 12.9933 7.35944C12.9933 7.35944 14.4005 6.46611 15.1283 7.58278L7.69162 15.5183ZM32.3083 15.5183C32.3083 15.5183 33.4455 14.7028 32.6427 13.7828C32.6427 13.7828 33.9088 12.6644 32.8805 11.6139C32.8805 11.6139 33.5683 9.35111 31.6927 9.22C31.6927 9.22 31.9094 6.95778 29.4261 7.22111C29.4261 7.22111 28.0366 6.22 27.0066 7.35944C27.0066 7.35944 25.5994 6.46611 24.8716 7.58278" fill="white"/>
<path d="M19.9999 32.7778C27.0569 32.7778 32.7777 27.057 32.7777 20C32.7777 12.943 27.0569 7.22222 19.9999 7.22222C12.943 7.22222 7.22217 12.943 7.22217 20C7.22217 27.057 12.943 32.7778 19.9999 32.7778Z" fill="white"/>
<path d="M27.6705 25.8589C27.6705 25.8589 26.7927 30.5422 19.9982 30.7256C13.2316 30.4811 12.326 25.8589 12.326 25.8589C12.0705 24.8978 11.6371 22.6589 13.5927 23.7422C15.0927 24.5756 16.5816 26.17 19.9982 26.27C23.4205 26.17 24.9038 24.5756 26.4038 23.7422C28.3594 22.6589 27.9316 24.8978 27.6705 25.8589Z" fill="white"/>
<path d="M19.9989 29.2967C16.6311 29.2967 14.4822 27.4578 13.9372 26.5667C13.3922 25.6756 14.2428 25.9244 14.4183 26.0094C15.7039 26.6294 16.6633 27.5083 19.9989 27.6222V29.2967ZM19.9989 29.2967C23.3667 29.2967 25.5156 27.4578 26.0606 26.5667C26.6056 25.6756 25.755 25.9244 25.5794 26.0094C24.2944 26.6294 23.335 27.5083 19.9989 27.6222" fill="white"/>
<path d="M7.69162 15.5183C7.69162 15.5183 6.5544 14.7028 7.35718 13.7828C7.35718 13.7828 6.09107 12.6644 7.1194 11.6139C7.1194 11.6139 6.43162 9.35111 8.30718 9.22C8.30718 9.22 8.09051 6.95778 10.5738 7.22111C10.5738 7.22111 11.9633 6.22 12.9933 7.35944C12.9933 7.35944 14.4005 6.46611 15.1283 7.58278M13.0238 11.7639C14.635 10.9 16.465 10.8678 17.8327 11.7639H13.0238ZM22.1672 11.7639C23.7777 10.9 25.6083 10.8678 26.9761 11.7639H22.1672ZM27.6711 25.8589C27.6711 25.8589 26.7933 30.5422 19.9988 30.7256C13.2322 30.4811 12.3266 25.8589 12.3266 25.8589C12.0711 24.8978 11.6377 22.6589 13.5933 23.7422C15.0933 24.5756 16.5822 26.17 19.9988 26.27C23.4211 26.17 24.9044 24.5756 26.4044 23.7422C28.36 22.6589 27.9322 24.8978 27.6711 25.8589Z" stroke="black" stroke-width="0.555556" stroke-miterlimit="10" stroke-linecap="round" stroke-linejoin="round"/>
<path d="M19.9999 32.7778C27.0569 32.7778 32.7777 27.057 32.7777 20C32.7777 12.943 27.0569 7.22222 19.9999 7.22222C12.943 7.22222 7.22217 12.943 7.22217 20C7.22217 27.057 12.943 32.7778 19.9999 32.7778Z" stroke="black" stroke-width="0.555556" stroke-miterlimit="10" stroke-linecap="round" stroke-linejoin="round"/>
<path d="M32.3082 15.5183C32.3082 15.5183 33.4455 14.7028 32.6427 13.7828C32.6427 13.7828 33.9088 12.6644 32.8805 11.6139C32.8805 11.6139 33.5682 9.35111 31.6927 9.22C31.6927 9.22 31.9094 6.95778 29.426 7.22111C29.426 7.22111 28.0366 6.22 27.0066 7.35944C27.0066 7.35944 25.5994 6.46611 24.8716 7.58278" stroke="black" stroke-width="0.555556" stroke-miterlimit="10" stroke-linecap="round" stroke-linejoin="round"/>
<path d="M15.4283 20.6233C16.5022 20.6233 17.3728 19.0553 17.3728 17.1211C17.3728 15.1869 16.5022 13.6189 15.4283 13.6189C14.3544 13.6189 13.4839 15.1869 13.4839 17.1211C13.4839 19.0553 14.3544 20.6233 15.4283 20.6233Z" stroke="black" stroke-width="0.555556" stroke-miterlimit="10"/>
<path d="M24.5716 20.6256C25.6455 20.6256 26.5161 19.0576 26.5161 17.1233C26.5161 15.1891 25.6455 13.6211 24.5716 13.6211C23.4978 13.6211 22.6272 15.1891 22.6272 17.1233C22.6272 19.0576 23.4978 20.6256 24.5716 20.6256Z" stroke="black" stroke-width="0.555556" stroke-miterlimit="10"/>
<path d="M19.9999 23.1739C20.8391 23.1739 21.5194 22.4936 21.5194 21.6544C21.5194 20.8153 20.8391 20.135 19.9999 20.135C19.1607 20.135 18.4805 20.8153 18.4805 21.6544C18.4805 22.4936 19.1607 23.1739 19.9999 23.1739Z" fill="black"/>
<path d="M15.4283 20.6233C16.5022 20.6233 17.3728 19.0553 17.3728 17.1211C17.3728 15.1869 16.5022 13.6189 15.4283 13.6189C14.3544 13.6189 13.4839 15.1869 13.4839 17.1211C13.4839 19.0553 14.3544 20.6233 15.4283 20.6233Z" stroke="black" stroke-width="0.583333" stroke-miterlimit="10"/>
<path d="M24.5716 20.6256C25.6455 20.6256 26.5161 19.0576 26.5161 17.1233C26.5161 15.1891 25.6455 13.6211 24.5716 13.6211C23.4978 13.6211 22.6272 15.1891 22.6272 17.1233C22.6272 19.0576 23.4978 20.6256 24.5716 20.6256Z" stroke="black" stroke-width="0.583333" stroke-miterlimit="10"/>
<path d="M20.0312 23.1739C20.8703 23.1739 21.5506 22.4936 21.5506 21.6544C21.5506 20.8153 20.8703 20.135 20.0312 20.135C19.192 20.135 18.5117 20.8153 18.5117 21.6544C18.5117 22.4936 19.192 23.1739 20.0312 23.1739Z" fill="black"/>
</svg>
