<svg width="40" height="40" viewBox="0 0 40 40" fill="none" xmlns="http://www.w3.org/2000/svg">
<path d="M13.5166 32.4167C11.6738 31.7379 10.0339 30.6017 8.75106 29.1147C7.46822 27.6278 6.5846 25.8391 6.1833 23.9167L3.41663 10.9C3.01663 9.1 4.16663 7.33334 5.96663 6.95L22.25 3.5L22.3 3.48334C24.0833 3.13334 25.8333 4.28334 26.2 6.05L26.7833 8.83334L34.0333 10.3833H34.0833C35.8333 10.7833 36.9666 12.55 36.6 14.3167L33.8333 27.35C33.514 28.8472 32.9028 30.2668 32.0347 31.5277C31.1667 32.7887 30.0587 33.8663 28.7741 34.6989C27.4895 35.5316 26.0534 36.103 24.548 36.3806C23.0425 36.6582 21.497 36.6365 20 36.3167C17.4602 35.7866 15.175 34.4119 13.5166 32.4167ZM33.3333 13.6333L17.05 10.1667L14.2833 23.2V23.25C13.3333 27.7167 16.2166 32.1167 20.7 33.0667C25.1833 34.0167 29.6166 31.15 30.5666 26.6667L33.3333 13.6333ZM26.6666 27.5C26.1401 28.3914 25.3467 29.0946 24.3986 29.5104C23.4505 29.9261 22.3956 30.0333 21.3833 29.8167C20.3741 29.6007 19.4575 29.0751 18.7614 28.3132C18.0652 27.5514 17.6242 26.5912 17.5 25.5667L26.6666 27.5ZM14.1166 8.61667L6.66663 10.2167L9.4333 23.2333L9.44996 23.2833C9.69996 24.4667 10.2 25.5333 10.8833 26.45C10.7166 25.1667 10.75 23.8333 11.0333 22.5L11.75 19.1667C11 19.0333 10.35 18.6167 9.99996 18.0167C10.1 17 10.9333 16.1 12.0833 15.8333H12.5L13.8 9.48334C13.8666 9.16667 13.9666 8.88334 14.1166 8.61667ZM25.05 20.3833C25.5833 19.5 26.7166 19.0333 27.8666 19.2833C29.0166 19.5167 29.85 20.4 30 21.4333C29.45 22.3 28.3333 22.7667 27.1666 22.5C26.0166 22.2833 25.1833 21.4 25.05 20.3833ZM16.9166 18.65C17.45 17.7667 18.5666 17.3 19.7166 17.55C20.8333 17.7833 21.7166 18.6833 21.85 19.7C21.3 20.5667 20.1833 21.05 19.0333 20.8333C17.8833 20.55 17.05 19.6667 16.9166 18.65ZM19.95 7.38333L23.2166 8.08333L22.95 6.75L19.95 7.38333Z" fill="white"/>
</svg>
