<svg width="40" height="40" viewBox="0 0 40 40" fill="none" xmlns="http://www.w3.org/2000/svg">
<g clip-path="url(#clip0_28_7)">
<path d="M12.5228 22.0428C7.69667 22.0428 3.17611 20.0717 0.723889 16.8983C0.476524 16.5882 0.293308 16.232 0.184906 15.8505C0.076503 15.4689 0.0450787 15.0696 0.0924617 14.6758C0.139845 14.2819 0.265089 13.9015 0.460904 13.5565C0.656719 13.2115 0.919194 12.909 1.23305 12.6664C1.54691 12.4238 1.90588 12.2461 2.28907 12.1436C2.67226 12.0411 3.07201 12.0158 3.46507 12.0692C3.85812 12.1226 4.23662 12.2537 4.57854 12.4548C4.92045 12.6559 5.21895 12.923 5.45667 13.2406C6.78056 14.9533 9.55389 16.06 12.5233 16.06C13.3096 16.0708 14.0601 16.3907 14.6123 16.9506C15.1645 17.5105 15.474 18.2653 15.474 19.0517C15.4739 19.838 15.1642 20.5928 14.6119 21.1525C14.0596 21.7123 13.3091 22.0321 12.5228 22.0428ZM39.3689 16.8983C39.6163 16.5882 39.7995 16.232 39.9079 15.8505C40.0163 15.4689 40.0477 15.0696 40.0003 14.6758C39.9529 14.2819 39.8277 13.9015 39.6319 13.5565C39.4361 13.2115 39.1736 12.909 38.8597 12.6664C38.5459 12.4238 38.1869 12.2461 37.8037 12.1436C37.4205 12.0411 37.0208 12.0158 36.6277 12.0692C36.2347 12.1226 35.8562 12.2537 35.5142 12.4548C35.1723 12.6559 34.8738 12.923 34.6361 13.2406C33.3122 14.9533 30.5389 16.06 27.5694 16.06C26.7762 16.06 26.0154 16.3751 25.4544 16.9361C24.8935 17.497 24.5783 18.2578 24.5783 19.0511C24.5783 19.8444 24.8935 20.6052 25.4544 21.1661C26.0154 21.7271 26.7762 22.0422 27.5694 22.0422C32.3956 22.0428 36.9167 20.0722 39.3689 16.8983Z" fill="#F1F1F1"/>
<path d="M33.5445 37.8633C33.2983 38.1206 33.0015 38.3239 32.6727 38.4606C32.344 38.5972 31.9904 38.6642 31.6345 38.6572C30.6422 38.6572 29.7156 38.1344 29.1556 37.2611C28.8433 36.7756 28.3572 36.4928 27.8228 36.485C27.3089 36.4922 26.8245 36.775 26.5122 37.2611C25.9422 38.1483 25.0389 38.6572 24.0333 38.6572H23.9683C22.9761 38.6572 22.0495 38.1344 21.4895 37.2611C21.1772 36.7756 20.6911 36.4928 20.1567 36.485C19.6428 36.4922 19.1583 36.775 18.8461 37.2611C18.2761 38.1483 17.3711 38.6572 16.3656 38.6572C16.3443 38.6556 16.3229 38.6556 16.3017 38.6572C15.3095 38.6572 14.3828 38.1344 13.8228 37.2611C13.5106 36.7756 13.0245 36.4928 12.49 36.485C11.9761 36.4922 11.4906 36.775 11.1795 37.2594C10.6095 38.1478 9.70446 38.6572 8.6989 38.6572C8.65723 38.6572 8.61446 38.6528 8.57279 38.6439C7.8489 38.6128 7.22223 38.3239 6.78834 37.8633C6.45057 37.5067 6.06112 36.8728 6.1189 35.8761C6.19557 34.5417 8.80168 13.4767 8.94001 12.3633C8.97168 6.205 13.9883 1.20444 20.1545 1.20444C26.3195 1.20444 31.3372 6.20389 31.37 12.3617C31.5072 13.465 34.1367 34.54 34.2133 35.8761C34.2717 36.8728 33.8822 37.5078 33.5445 37.8633Z" fill="white"/>
</g>
<defs>
<clipPath id="clip0_28_7">
<rect width="40" height="40" fill="white"/>
</clipPath>
</defs>
</svg>
