<svg width="269" height="250" viewBox="0 0 269 250" fill="none" xmlns="http://www.w3.org/2000/svg">
<path d="M188.228 33.5525L63.25 88.3175C52.3425 93.0975 50.6975 107.895 60.2925 114.95L170.203 195.812C179.795 202.87 193.433 196.895 194.745 185.062L209.813 49.4375C211.128 37.595 199.135 28.7725 188.228 33.5525Z" fill="#735BBE"/>
<path d="M229.08 201.86H46.4225C46.2899 201.86 46.1627 201.807 46.0689 201.714C45.9752 201.62 45.9225 201.493 45.9225 201.36C45.9225 201.227 45.9752 201.1 46.0689 201.006C46.1627 200.913 46.2899 200.86 46.4225 200.86H229.08C229.213 200.86 229.34 200.913 229.434 201.006C229.527 201.1 229.58 201.227 229.58 201.36C229.58 201.493 229.527 201.62 229.434 201.714C229.34 201.807 229.213 201.86 229.08 201.86Z" fill="black"/>
<path d="M160.557 102.457L166.792 81.8525C166.879 81.5649 167.029 81.3 167.23 81.0767C167.431 80.8534 167.679 80.6772 167.956 80.5606C168.233 80.4441 168.532 80.3902 168.832 80.4026C169.132 80.415 169.426 80.4935 169.693 80.6325L176.423 84.1325C176.713 84.2839 176.964 84.5032 177.152 84.7718C177.34 85.0404 177.461 85.3504 177.504 85.6756C177.548 86.0008 177.512 86.3316 177.4 86.64C177.288 86.9484 177.104 87.2254 176.863 87.4475L160.557 102.457Z" fill="#FB6D6D"/>
<path d="M158.96 101.65L176.75 90.575C177.026 90.4032 177.338 90.2958 177.661 90.2607C177.984 90.2256 178.311 90.2637 178.618 90.3723C178.925 90.4808 179.203 90.6569 179.432 90.8876C179.661 91.1184 179.836 91.3977 179.943 91.705L182.303 98.5375C182.415 98.8619 182.448 99.2083 182.4 99.5481C182.352 99.888 182.224 100.212 182.027 100.492C181.829 100.773 181.568 101.003 181.264 101.163C180.961 101.323 180.623 101.408 180.28 101.412L158.96 101.65Z" fill="#FB6D6D"/>
<path d="M133.805 139.777C142.088 139.777 148.802 133.063 148.802 124.78C148.802 116.497 142.088 109.783 133.805 109.783C125.522 109.783 118.807 116.497 118.807 124.78C118.807 133.063 125.522 139.777 133.805 139.777Z" fill="black"/>
<path d="M101.527 59.585H42.6325C38.8908 59.585 35.8575 62.6183 35.8575 66.36V92.435C35.8575 96.1767 38.8908 99.21 42.6325 99.21H101.527C105.269 99.21 108.302 96.1767 108.302 92.435V66.36C108.302 62.6183 105.269 59.585 101.527 59.585Z" fill="white"/>
<path d="M101.527 99.71H42.635C40.7055 99.708 38.8556 98.9406 37.4912 97.5763C36.1268 96.2119 35.3595 94.362 35.3575 92.4325V66.3625C35.3595 64.433 36.1268 62.5831 37.4912 61.2187C38.8556 59.8543 40.7055 59.087 42.635 59.085H101.527C103.457 59.0876 105.306 59.8553 106.67 61.2196C108.033 62.5839 108.8 64.4334 108.802 66.3625V92.4325C108.8 94.3616 108.033 96.2111 106.67 97.5754C105.306 98.9397 103.457 99.7073 101.527 99.71ZM42.635 60.085C40.9705 60.0863 39.3746 60.7481 38.1976 61.9251C37.0206 63.1021 36.3588 64.698 36.3575 66.3625V92.4325C36.3588 94.097 37.0206 95.6929 38.1976 96.8699C39.3746 98.0469 40.9705 98.7087 42.635 98.71H101.527C103.192 98.708 104.787 98.0459 105.963 96.869C107.14 95.6921 107.801 94.0966 107.802 92.4325V66.3625C107.801 64.6984 107.14 63.1029 105.963 61.926C104.787 60.7491 103.192 60.087 101.527 60.085H42.635Z" fill="black"/>
<path d="M98.6675 70.1875H71.58C70.5044 70.1875 69.6325 71.0594 69.6325 72.135V73.6475C69.6325 74.7231 70.5044 75.595 71.58 75.595H98.6675C99.7431 75.595 100.615 74.7231 100.615 73.6475V72.135C100.615 71.0594 99.7431 70.1875 98.6675 70.1875Z" fill="#FFBB45"/>
<path d="M99.3225 82.44H70.9275C70.7949 82.44 70.6677 82.3873 70.5739 82.2936C70.4802 82.1998 70.4275 82.0726 70.4275 81.94C70.4275 81.8074 70.4802 81.6802 70.5739 81.5864C70.6677 81.4927 70.7949 81.44 70.9275 81.44H99.3225C99.4551 81.44 99.5823 81.4927 99.676 81.5864C99.7698 81.6802 99.8225 81.8074 99.8225 81.94C99.8225 82.0726 99.7698 82.1998 99.676 82.2936C99.5823 82.3873 99.4551 82.44 99.3225 82.44Z" fill="black"/>
<path d="M95.325 88.865H70.9275C70.7949 88.865 70.6677 88.8123 70.5739 88.7185C70.4802 88.6248 70.4275 88.4976 70.4275 88.365C70.4275 88.2324 70.4802 88.1052 70.5739 88.0114C70.6677 87.9177 70.7949 87.865 70.9275 87.865H95.325C95.4576 87.865 95.5848 87.9177 95.6785 88.0114C95.7723 88.1052 95.825 88.2324 95.825 88.365C95.825 88.4976 95.7723 88.6248 95.6785 88.7185C95.5848 88.8123 95.4576 88.865 95.325 88.865Z" fill="black"/>
<path d="M178.655 152.717C187.315 152.717 194.335 145.742 194.335 137.137C194.335 128.533 187.315 121.558 178.655 121.558C169.995 121.558 162.975 128.533 162.975 137.137C162.975 145.742 169.995 152.717 178.655 152.717Z" fill="black"/>
<path d="M162.975 131.698C171.635 131.698 178.655 124.722 178.655 116.118C178.655 107.513 171.635 100.538 162.975 100.538C154.315 100.538 147.295 107.513 147.295 116.118C147.295 124.722 154.315 131.698 162.975 131.698Z" fill="black"/>
<path d="M149.2 113.615H139.67C137.324 113.615 135.001 113.153 132.834 112.255C130.666 111.357 128.697 110.041 127.038 108.382C125.38 106.723 124.064 104.754 123.166 102.586C122.269 100.419 121.807 98.0959 121.807 95.75V83.56C121.811 80.7577 122.926 78.0714 124.909 76.0913C126.892 74.1112 129.58 72.9993 132.382 73H145.25C149.61 73 153.792 74.7321 156.875 77.8152C159.958 80.8983 161.69 85.0798 161.69 89.44V101.147C161.689 102.786 161.365 104.409 160.736 105.922C160.108 107.436 159.187 108.811 158.027 109.968C156.868 111.126 155.491 112.044 153.976 112.67C152.462 113.295 150.839 113.617 149.2 113.615Z" fill="black"/>
<path d="M125.75 77.175C125.75 77.175 120.095 78.01 118.61 89.97C118.434 91.4309 117.804 92.7997 116.807 93.8825L115.897 94.8675C115.668 95.1154 115.537 95.4389 115.531 95.7766C115.524 96.1144 115.641 96.4429 115.86 96.7L117.092 98.15L116.47 105.8C116.47 105.8 115.22 113.952 124.817 113.7H130.922V122.158H150.11V107.62C150.11 107.62 154.482 106.87 155.277 102.565C155.478 101.489 155.433 100.381 155.144 99.3252C154.856 98.2692 154.332 97.2922 153.612 96.4675C152.18 94.845 149.655 93.4675 145.497 95.4075C145.5 95.4075 128.985 98.7225 125.75 77.175Z" fill="white"/>
<path d="M148.802 104.413C148.407 104.413 148.02 104.295 147.691 104.075C147.362 103.856 147.106 103.543 146.955 103.178C146.803 102.812 146.764 102.41 146.841 102.022C146.918 101.634 147.109 101.278 147.388 100.998C147.668 100.719 148.024 100.528 148.412 100.451C148.8 100.374 149.202 100.413 149.568 100.565C149.933 100.716 150.246 100.972 150.465 101.301C150.685 101.63 150.802 102.017 150.802 102.413C150.802 102.943 150.592 103.452 150.217 103.827C149.842 104.202 149.333 104.413 148.802 104.413ZM148.802 101.398C148.605 101.398 148.411 101.456 148.247 101.566C148.082 101.676 147.954 101.832 147.879 102.015C147.803 102.198 147.783 102.399 147.822 102.593C147.86 102.787 147.956 102.965 148.095 103.105C148.235 103.244 148.413 103.34 148.607 103.378C148.801 103.417 149.002 103.397 149.185 103.321C149.368 103.246 149.524 103.118 149.634 102.953C149.744 102.789 149.802 102.595 149.802 102.398C149.802 102.132 149.697 101.878 149.51 101.69C149.322 101.503 149.068 101.398 148.802 101.398Z" fill="black"/>
<path d="M147.295 102.905C147.165 102.905 147.04 102.854 146.947 102.764C146.853 102.673 146.799 102.55 146.795 102.42C146.76 101.388 147.067 100.553 147.712 99.9375C148.992 98.7175 151.13 98.8725 151.212 98.88C151.345 98.8903 151.468 98.9528 151.555 99.0539C151.641 99.1549 151.684 99.2861 151.674 99.4188C151.663 99.5514 151.601 99.6745 151.5 99.761C151.399 99.8475 151.268 99.8903 151.135 99.88C151.117 99.88 149.345 99.755 148.385 100.67C147.952 101.085 147.755 101.648 147.78 102.393C147.782 102.458 147.772 102.524 147.748 102.586C147.725 102.648 147.69 102.704 147.645 102.752C147.6 102.8 147.546 102.839 147.486 102.866C147.426 102.893 147.361 102.908 147.295 102.91V102.905Z" fill="black"/>
<path d="M127.763 95.3925C128.416 95.3925 128.945 94.8631 128.945 94.21C128.945 93.5569 128.416 93.0275 127.763 93.0275C127.109 93.0275 126.58 93.5569 126.58 94.21C126.58 94.8631 127.109 95.3925 127.763 95.3925Z" fill="black"/>
<path d="M123.61 105.365C123.128 105.367 122.651 105.272 122.207 105.085C120.77 104.477 119.805 102.875 119.807 101.1C119.808 100.951 119.841 100.804 119.905 100.67C119.968 100.535 120.06 100.416 120.175 100.32C120.289 100.225 120.423 100.156 120.567 100.118C120.71 100.08 120.861 100.074 121.007 100.1L126.97 101.165C127.122 101.193 127.266 101.256 127.391 101.347C127.516 101.439 127.619 101.558 127.691 101.696C127.763 101.833 127.803 101.984 127.808 102.139C127.813 102.294 127.783 102.448 127.72 102.59C126.955 104.29 125.262 105.365 123.61 105.365ZM120.827 101.072C120.825 101.08 120.825 101.088 120.827 101.095C120.827 102.475 121.545 103.705 122.617 104.16C124.262 104.855 126.157 103.66 126.83 102.16L126.815 102.13L120.85 101.065L120.827 101.072Z" fill="black"/>
<path d="M130.765 113.71H139.933C140.014 113.711 140.092 113.739 140.155 113.791C140.218 113.842 140.261 113.914 140.277 113.993C140.294 114.073 140.282 114.156 140.245 114.228C140.208 114.3 140.147 114.357 140.073 114.39L130.765 118.365V113.71Z" fill="black"/>
<path d="M130.765 121.963C130.763 121.507 130.908 121.062 131.178 120.695C131.448 120.327 131.829 120.057 132.265 119.922C132.599 119.822 132.941 119.753 133.288 119.717C134.597 119.596 135.909 119.921 137.01 120.64C137.93 119.928 139.059 119.54 140.222 119.537C141.386 119.534 142.517 119.917 143.44 120.625C144.371 120 145.459 119.648 146.58 119.61C147.283 119.591 147.984 119.697 148.65 119.925C149.065 120.07 149.424 120.34 149.678 120.699C149.932 121.057 150.068 121.486 150.068 121.925V126.3H130.765V121.963Z" fill="#F7AD2B"/>
<path d="M205.193 185.075L94.88 184.982L99.77 140.215C100.234 135.972 102.245 132.05 105.419 129.197C108.593 126.343 112.707 124.76 116.975 124.75L162.578 124.635C167.898 124.622 173.101 126.199 177.519 129.163C181.938 132.128 185.37 136.344 187.375 141.273C196.625 162.543 203.318 178.072 204.048 179.915C204.395 180.818 204.673 181.747 204.88 182.693C205.042 183.478 205.147 184.274 205.193 185.075Z" fill="#F7AD2B"/>
<path d="M171.818 185.018H115.273V146.695H157.945C158.528 146.695 159.096 146.882 159.565 147.228C160.034 147.574 160.38 148.061 160.553 148.617L171.818 185.018Z" fill="black"/>
<path d="M157.937 147.195C157.818 147.197 157.703 147.156 157.611 147.08C157.519 147.004 157.458 146.897 157.437 146.78C157.297 145.953 154.08 126.503 160.792 124.165C160.918 124.121 161.055 124.129 161.175 124.187C161.294 124.244 161.386 124.347 161.43 124.473C161.474 124.598 161.466 124.735 161.408 124.855C161.351 124.974 161.248 125.066 161.122 125.11C156.205 126.82 157.507 141.213 158.425 146.61C158.436 146.675 158.434 146.741 158.42 146.805C158.405 146.87 158.378 146.93 158.34 146.984C158.302 147.038 158.253 147.083 158.198 147.118C158.142 147.153 158.08 147.177 158.015 147.188C157.989 147.192 157.963 147.195 157.937 147.195Z" fill="black"/>
<path d="M116.523 147.195C116.41 147.195 116.3 147.157 116.212 147.087C116.123 147.017 116.061 146.92 116.035 146.81C114.729 141.368 114.694 135.698 115.933 130.24C116.381 128.297 116.994 126.395 117.763 124.555C117.816 124.436 117.914 124.343 118.035 124.295C118.156 124.247 118.291 124.249 118.411 124.299C118.531 124.349 118.627 124.444 118.678 124.564C118.729 124.684 118.732 124.818 118.685 124.94C117.938 126.728 117.344 128.577 116.908 130.465C115.703 135.774 115.738 141.289 117.01 146.583C117.025 146.647 117.027 146.713 117.016 146.778C117.005 146.842 116.982 146.905 116.947 146.96C116.912 147.016 116.867 147.064 116.813 147.102C116.76 147.141 116.699 147.168 116.635 147.182C116.598 147.192 116.56 147.196 116.523 147.195Z" fill="black"/>
<path d="M109.375 115.93C108.855 115.258 108.259 114.649 107.597 114.115L107.57 114.09C106.334 112.993 105.259 111.725 104.38 110.325C103.6 109.075 103.13 107.795 102.365 105.825C101.982 104.845 101.712 104.075 101.562 103.645C99.78 98.525 98.61 93.935 96.8 93.275C96.5275 93.1825 96.2444 93.1246 95.9575 93.1025C95.5755 93.0667 95.1903 93.1077 94.8244 93.2232C94.4586 93.3387 94.1196 93.5264 93.8275 93.775C93.6337 93.9403 93.4652 94.1332 93.3275 94.3475C92.6275 95.46 92.975 97.0725 93.6925 100.25C93.8075 100.75 93.91 101.162 93.9775 101.437L95.43 108.098C95.43 108.098 91.86 108.905 92.06 111.735C92.06 111.735 88.76 109.78 87.48 113.62C87.48 113.62 83.305 113.957 84.5175 118.537C84.5175 118.537 86.2 124.668 88.6925 124.87C88.6925 124.87 88.2225 134.435 96.17 138.62L109.17 136.985L110.025 133.28C112.275 123.53 111.26 120.368 110.882 119.198C110.518 118.05 110.011 116.952 109.375 115.93Z" fill="white"/>
<path d="M97.855 133.197C97.7761 133.198 97.6983 133.179 97.6279 133.144C97.5575 133.108 97.4965 133.056 97.45 132.992C95.949 130.955 95.0172 128.554 94.75 126.037C94.1825 120.287 97.4675 116.037 98.8125 114.575L97.77 111.885C97.6675 111.613 97.535 111.265 97.3875 110.92C96.56 108.997 96.1875 107.383 96.2825 106.118C96.3094 105.735 96.4134 105.363 96.5883 105.022C96.7632 104.681 97.0053 104.38 97.3 104.135C97.5886 103.894 97.9231 103.715 98.2833 103.607C98.6434 103.5 99.0216 103.467 99.395 103.51C101.66 103.76 103.015 106.35 103.072 106.457C103.103 106.516 103.121 106.58 103.127 106.645C103.132 106.711 103.125 106.777 103.105 106.84C103.085 106.902 103.053 106.96 103.01 107.011C102.968 107.061 102.916 107.102 102.857 107.133C102.799 107.163 102.735 107.181 102.67 107.187C102.604 107.192 102.538 107.185 102.475 107.165C102.413 107.145 102.355 107.113 102.304 107.07C102.254 107.028 102.213 106.976 102.182 106.918C102.182 106.895 101.015 104.695 99.285 104.505C99.045 104.477 98.8018 104.498 98.5701 104.567C98.3385 104.635 98.1232 104.75 97.9375 104.905C97.7464 105.064 97.5896 105.26 97.4766 105.481C97.3636 105.703 97.2967 105.945 97.28 106.192C97.1975 107.295 97.5425 108.753 98.305 110.525C98.4625 110.888 98.6 111.253 98.705 111.525L99.975 114.8L99.7525 115.03C98.67 116.153 95.185 120.255 95.7525 125.935C95.9988 128.273 96.8615 130.503 98.2525 132.398C98.3305 132.504 98.3629 132.638 98.3428 132.768C98.3226 132.899 98.2515 133.017 98.145 133.095C98.0615 133.159 97.96 133.195 97.855 133.197Z" fill="black"/>
<path d="M126.175 182.575C122.789 182.352 119.392 182.755 116.152 183.765C104.1 187.562 98.7525 198.692 97.6175 201.212L126.175 201.36V182.575Z" fill="white"/>
<path d="M126.675 201.863L96.845 201.708L97.16 201.008C99.025 196.878 104.59 186.885 116.002 183.288C119.3 182.259 122.759 181.848 126.205 182.075L126.675 182.105V201.863ZM98.4 200.718L125.675 200.858V183.048C122.504 182.893 119.331 183.3 116.302 184.25C105.875 187.528 100.482 196.375 98.4 200.718Z" fill="black"/>
<path d="M93.3825 126.25C92.8943 126.255 92.4114 126.149 91.97 125.94C91.4204 125.671 90.9545 125.257 90.6225 124.743C90.4512 124.952 90.2373 125.122 89.995 125.243C89.5355 125.46 89.0096 125.492 88.5275 125.33C88.4658 125.308 88.4091 125.273 88.3607 125.229C88.3123 125.184 88.2731 125.131 88.2453 125.071C88.2176 125.012 88.2019 124.947 88.199 124.882C88.1962 124.816 88.2063 124.75 88.2288 124.689C88.2513 124.627 88.2857 124.57 88.3301 124.522C88.3745 124.474 88.428 124.434 88.4875 124.407C88.5471 124.379 88.6115 124.363 88.6771 124.36C88.7428 124.357 88.8083 124.368 88.87 124.39C89.0982 124.459 89.3434 124.442 89.56 124.342C89.7111 124.245 89.8413 124.119 89.9431 123.971C90.0448 123.823 90.116 123.656 90.1525 123.48L90.6525 121.853L91.12 123.488C91.12 123.488 91.4525 124.58 92.4175 125.035C93.1025 125.36 93.9725 125.303 95.0025 124.868C95.0634 124.839 95.1295 124.823 95.1967 124.82C95.2639 124.818 95.331 124.829 95.3939 124.853C95.4567 124.877 95.5141 124.913 95.5625 124.96C95.6109 125.007 95.6494 125.063 95.6757 125.125C95.702 125.187 95.7155 125.253 95.7154 125.321C95.7153 125.388 95.7016 125.455 95.6751 125.516C95.6487 125.578 95.61 125.634 95.5615 125.681C95.5129 125.727 95.4555 125.764 95.3925 125.787C94.7602 126.074 94.0767 126.232 93.3825 126.25Z" fill="black"/>
<path d="M90.63 124.13C90.5239 124.13 90.4208 124.095 90.3354 124.033C90.25 123.97 90.1868 123.881 90.155 123.78L87 113.765C86.9602 113.638 86.9724 113.501 87.0338 113.383C87.0952 113.266 87.2009 113.177 87.3275 113.137C87.4541 113.098 87.5914 113.11 87.7091 113.171C87.8268 113.233 87.9152 113.338 87.955 113.465L91.0975 123.48C91.1173 123.543 91.1245 123.609 91.1187 123.674C91.1129 123.74 91.0943 123.803 91.0639 123.862C91.0335 123.92 90.9919 123.972 90.9414 124.014C90.891 124.056 90.8327 124.088 90.77 124.107C90.7246 124.122 90.6775 124.129 90.63 124.13Z" fill="black"/>
<path d="M95.58 122.058C95.4769 122.057 95.3765 122.025 95.2923 121.966C95.2082 121.906 95.1445 121.822 95.11 121.725L91.5975 111.898C91.5753 111.836 91.5656 111.77 91.5688 111.704C91.572 111.639 91.5881 111.574 91.6162 111.515C91.6443 111.455 91.6838 111.402 91.7325 111.358C91.7812 111.314 91.8381 111.28 91.9 111.258C91.9619 111.235 92.0275 111.226 92.0932 111.229C92.1588 111.232 92.2232 111.248 92.2826 111.276C92.3421 111.304 92.3954 111.344 92.4395 111.393C92.4837 111.441 92.5178 111.498 92.54 111.56L96.04 121.39C96.0668 121.466 96.0751 121.546 96.0642 121.626C96.0532 121.705 96.0233 121.781 95.977 121.846C95.9306 121.912 95.8693 121.965 95.798 122.002C95.7267 122.039 95.6477 122.058 95.5675 122.058H95.58Z" fill="black"/>
<path d="M226.488 66.7775H193.775C189.031 66.7775 185.185 70.6228 185.185 75.3662C185.185 80.1097 189.031 83.955 193.775 83.955H226.488C231.232 83.955 235.077 80.1097 235.077 75.3662C235.077 70.6228 231.232 66.7775 226.488 66.7775Z" fill="white"/>
<path d="M226.5 84.4575H193.773C191.362 84.4575 189.05 83.4998 187.345 81.7951C185.64 80.0904 184.682 77.7783 184.682 75.3675C184.682 72.9567 185.64 70.6446 187.345 68.9399C189.05 67.2352 191.362 66.2775 193.773 66.2775H226.5C228.911 66.2775 231.223 67.2352 232.928 68.9399C234.632 70.6446 235.59 72.9567 235.59 75.3675C235.59 77.7783 234.632 80.0904 232.928 81.7951C231.223 83.4998 228.911 84.4575 226.5 84.4575ZM193.773 67.2775C191.627 67.2775 189.569 68.1298 188.052 69.647C186.535 71.1642 185.682 73.2219 185.682 75.3675C185.682 77.5131 186.535 79.5708 188.052 81.088C189.569 82.6052 191.627 83.4575 193.773 83.4575H226.5C228.646 83.4575 230.703 82.6052 232.22 81.088C233.738 79.5708 234.59 77.5131 234.59 75.3675C234.59 73.2219 233.738 71.1642 232.22 69.647C230.703 68.1298 228.646 67.2775 226.5 67.2775H193.773Z" fill="black"/>
<path d="M196.537 78.165C198.083 78.165 199.335 76.9125 199.335 75.3675C199.335 73.8225 198.083 72.57 196.537 72.57C194.992 72.57 193.74 73.8225 193.74 75.3675C193.74 76.9125 194.992 78.165 196.537 78.165Z" fill="#6DC8C2"/>
<path d="M210.13 78.165C211.675 78.165 212.928 76.9125 212.928 75.3675C212.928 73.8225 211.675 72.57 210.13 72.57C208.585 72.57 207.333 73.8225 207.333 75.3675C207.333 76.9125 208.585 78.165 210.13 78.165Z" fill="#6DC8C2"/>
<path d="M223.723 78.165C225.268 78.165 226.52 76.9125 226.52 75.3675C226.52 73.8225 225.268 72.57 223.723 72.57C222.178 72.57 220.925 73.8225 220.925 75.3675C220.925 76.9125 222.178 78.165 223.723 78.165Z" fill="#6DC8C2"/>
<path d="M63.0625 113.865H47.175C43.922 113.865 41.285 116.502 41.285 119.755V135.642C41.285 138.895 43.922 141.532 47.175 141.532H63.0625C66.3154 141.532 68.9525 138.895 68.9525 135.642V119.755C68.9525 116.502 66.3154 113.865 63.0625 113.865Z" fill="white"/>
<path d="M63.06 142.033H47.175C45.4806 142.03 43.8565 141.355 42.6586 140.157C41.4607 138.959 40.787 137.334 40.785 135.64V119.75C40.787 118.056 41.4607 116.431 42.6586 115.233C43.8565 114.035 45.4806 113.36 47.175 113.357H63.06C64.7548 113.359 66.3796 114.034 67.578 115.232C68.7764 116.43 69.4505 118.055 69.4525 119.75V135.633C69.4525 137.329 68.7792 138.955 67.5806 140.155C66.382 141.355 64.7561 142.031 63.06 142.033ZM47.175 114.365C45.7467 114.366 44.3773 114.934 43.3669 115.943C42.3565 116.953 41.7876 118.322 41.785 119.75V135.633C41.7863 137.062 42.3545 138.432 43.365 139.443C44.3754 140.454 45.7456 141.023 47.175 141.025H63.06C64.4895 141.023 65.86 140.454 66.8709 139.443C67.8817 138.433 68.4505 137.062 68.4525 135.633V119.75C68.4511 118.32 67.8826 116.949 66.8716 115.938C65.8606 114.927 64.4897 114.359 63.06 114.357L47.175 114.365Z" fill="black"/>
<path d="M62.835 123.177C62.5293 122.616 62.073 122.151 61.5175 121.835C58.965 120.407 56.3875 121.292 55.125 123.147C53.845 121.27 51.2175 120.382 48.625 121.897C48.1546 122.171 47.7614 122.56 47.4825 123.027C46.31 124.997 46.54 126.975 47.525 128.383C47.5428 128.408 47.562 128.432 47.5825 128.455V128.467C47.6025 128.495 48.8575 129.95 49.6425 130.745C51.141 132.205 52.7122 133.588 54.35 134.89C54.5618 135.063 54.8267 135.157 55.1 135.157C55.3732 135.157 55.6381 135.063 55.85 134.89C57.2625 133.762 58.41 132.785 59.2625 132.038C59.9137 131.495 60.5284 130.911 61.1025 130.288C62.3275 128.935 65.025 127.162 62.835 123.177Z" fill="#FB6D6D"/>
<path d="M243.707 103.475H194.945C190.303 103.475 186.54 107.238 186.54 111.88V165.263C186.54 169.904 190.303 173.668 194.945 173.668H243.707C248.349 173.668 252.112 169.904 252.112 165.263V111.88C252.112 107.238 248.349 103.475 243.707 103.475Z" fill="white"/>
<path d="M243.707 174.168H194.945C192.584 174.165 190.321 173.226 188.651 171.556C186.982 169.887 186.043 167.623 186.04 165.263V111.88C186.043 109.519 186.982 107.256 188.651 105.586C190.321 103.917 192.584 102.978 194.945 102.975H243.707C246.068 102.978 248.332 103.917 250.001 105.586C251.671 107.256 252.61 109.519 252.612 111.88V165.263C252.61 167.623 251.671 169.887 250.001 171.556C248.332 173.226 246.068 174.165 243.707 174.168ZM194.945 103.975C192.849 103.978 190.84 104.811 189.358 106.293C187.876 107.775 187.043 109.784 187.04 111.88V165.263C187.043 167.358 187.876 169.367 189.358 170.849C190.84 172.331 192.849 173.165 194.945 173.168H243.707C245.803 173.165 247.812 172.331 249.294 170.849C250.776 169.367 251.61 167.358 251.612 165.263V111.88C251.611 109.784 250.777 107.775 249.295 106.293C247.813 104.81 245.803 103.977 243.707 103.975H194.945Z" fill="black"/>
<path d="M202.923 129.872H196.4C194.507 129.872 192.973 131.407 192.973 133.3V139.822C192.973 141.715 194.507 143.25 196.4 143.25H202.923C204.815 143.25 206.35 141.715 206.35 139.822V133.3C206.35 131.407 204.815 129.872 202.923 129.872Z" fill="#735BBE"/>
<path d="M202.923 150.18H196.4C194.507 150.18 192.973 151.715 192.973 153.607V160.13C192.973 162.023 194.507 163.557 196.4 163.557H202.923C204.815 163.557 206.35 162.023 206.35 160.13V153.607C206.35 151.715 204.815 150.18 202.923 150.18Z" fill="#735BBE"/>
<path d="M244.803 133.307H214.608C214.475 133.307 214.348 133.255 214.254 133.161C214.16 133.067 214.108 132.94 214.108 132.807C214.108 132.675 214.16 132.548 214.254 132.454C214.348 132.36 214.475 132.307 214.608 132.307H244.803C244.935 132.307 245.062 132.36 245.156 132.454C245.25 132.548 245.303 132.675 245.303 132.807C245.303 132.94 245.25 133.067 245.156 133.161C245.062 133.255 244.935 133.307 244.803 133.307Z" fill="black"/>
<path d="M233.22 140.67H214.608C214.475 140.67 214.348 140.617 214.254 140.524C214.16 140.43 214.108 140.303 214.108 140.17C214.108 140.037 214.16 139.91 214.254 139.816C214.348 139.723 214.475 139.67 214.608 139.67H233.22C233.353 139.67 233.48 139.723 233.574 139.816C233.667 139.91 233.72 140.037 233.72 140.17C233.72 140.303 233.667 140.43 233.574 140.524C233.48 140.617 233.353 140.67 233.22 140.67Z" fill="black"/>
<path d="M244.803 153.688H214.608C214.475 153.688 214.348 153.635 214.254 153.541C214.16 153.447 214.108 153.32 214.108 153.188C214.108 153.055 214.16 152.928 214.254 152.834C214.348 152.74 214.475 152.688 214.608 152.688H244.803C244.935 152.688 245.062 152.74 245.156 152.834C245.25 152.928 245.303 153.055 245.303 153.188C245.303 153.32 245.25 153.447 245.156 153.541C245.062 153.635 244.935 153.688 244.803 153.688Z" fill="black"/>
<path d="M233.22 161.05H214.608C214.475 161.05 214.348 160.997 214.254 160.904C214.16 160.81 214.108 160.683 214.108 160.55C214.108 160.417 214.16 160.29 214.254 160.196C214.348 160.103 214.475 160.05 214.608 160.05H233.22C233.353 160.05 233.48 160.103 233.574 160.196C233.667 160.29 233.72 160.417 233.72 160.55C233.72 160.683 233.667 160.81 233.574 160.904C233.48 160.997 233.353 161.05 233.22 161.05Z" fill="black"/>
<path d="M204.902 112.882C204.694 112.498 204.381 112.18 204 111.965C202.25 110.985 200.485 111.592 199.62 112.865C198.742 111.577 196.942 110.97 195.17 112.002C194.849 112.192 194.58 112.459 194.39 112.78C193.585 114.127 193.742 115.482 194.417 116.447C194.429 116.465 194.443 116.482 194.457 116.497C194.472 116.517 195.332 117.515 195.87 118.06C196.33 118.522 197.465 119.582 199.095 120.897C199.24 121.014 199.42 121.078 199.606 121.078C199.792 121.078 199.973 121.014 200.117 120.897C201.085 120.122 201.867 119.452 202.455 118.942C202.897 118.571 203.314 118.172 203.705 117.747C204.555 116.83 206.405 115.615 204.902 112.882Z" fill="#FB6D6D"/>
<path d="M183.795 206.473H129.645C128.819 206.473 128.001 206.31 127.237 205.994C126.474 205.678 125.78 205.215 125.196 204.631C124.611 204.047 124.148 203.353 123.832 202.59C123.515 201.827 123.352 201.009 123.352 200.182V189.8C123.353 186.096 124.825 182.543 127.444 179.924C130.063 177.305 133.616 175.833 137.32 175.833H195.95C198.403 175.833 200.756 176.807 202.491 178.542C204.225 180.276 205.2 182.629 205.2 185.083C205.199 187.892 204.645 190.675 203.568 193.27C202.492 195.866 200.915 198.224 198.927 200.211C196.94 202.197 194.58 203.772 191.984 204.847C189.388 205.921 186.605 206.473 183.795 206.473Z" fill="#F7AD2B"/>
<path d="M100.058 207.465C97.8158 207.419 95.6052 206.931 93.5519 206.03C91.4987 205.129 89.643 203.833 88.0908 202.215C86.5387 200.597 85.3204 198.689 84.5057 196.6C83.691 194.511 83.2957 192.282 83.3425 190.04L84.275 145.177C84.3295 142.601 85.4048 140.152 87.2645 138.368C89.1242 136.584 91.6162 135.612 94.1925 135.665L108.905 135.972C111.479 136.028 113.926 137.104 115.708 138.963C117.489 140.823 118.459 143.313 118.405 145.887L117.483 190.75C117.436 192.992 116.948 195.202 116.048 197.256C115.147 199.309 113.85 201.165 112.232 202.717C110.614 204.269 108.706 205.487 106.617 206.302C104.528 207.117 102.299 207.512 100.058 207.465Z" fill="#F7AD2B"/>
<path d="M180.125 175.83H166.55C166.417 175.83 166.29 175.777 166.196 175.684C166.103 175.59 166.05 175.463 166.05 175.33C166.05 175.197 166.103 175.07 166.196 174.976C166.29 174.883 166.417 174.83 166.55 174.83H180.125C180.258 174.83 180.385 174.883 180.479 174.976C180.572 175.07 180.625 175.197 180.625 175.33C180.625 175.463 180.572 175.59 180.479 175.684C180.385 175.777 180.258 175.83 180.125 175.83Z" fill="black"/>
<path d="M164.45 103.143C163.731 103.143 163.029 102.93 162.431 102.53C161.834 102.131 161.368 101.564 161.092 100.9C160.817 100.237 160.745 99.506 160.884 98.8011C161.024 98.0962 161.369 97.4485 161.877 96.9398C162.385 96.4312 163.032 96.0844 163.736 95.9433C164.441 95.8022 165.172 95.8731 165.836 96.1471C166.5 96.421 167.068 96.8858 167.469 97.4826C167.869 98.0793 168.084 98.7814 168.085 99.5C168.086 99.9779 167.992 100.451 167.81 100.893C167.627 101.335 167.36 101.736 167.022 102.074C166.685 102.413 166.284 102.681 165.842 102.864C165.401 103.048 164.928 103.142 164.45 103.143ZM164.45 96.8725C163.929 96.8725 163.419 97.0272 162.985 97.3171C162.552 97.607 162.214 98.019 162.015 98.5009C161.816 98.9828 161.764 99.513 161.866 100.024C161.968 100.536 162.22 101.005 162.589 101.373C162.959 101.742 163.429 101.992 163.941 102.093C164.452 102.194 164.982 102.14 165.464 101.94C165.945 101.739 166.356 101.4 166.645 100.966C166.933 100.532 167.086 100.021 167.085 99.5C167.082 98.8027 166.804 98.1347 166.31 97.6424C165.816 97.15 165.147 96.8732 164.45 96.8725Z" fill="black"/>
<path d="M118.475 147.195C118.342 147.195 118.215 147.142 118.121 147.049C118.028 146.955 117.975 146.828 117.975 146.695C117.91 136.718 109.75 136.5 109.407 136.5C109.275 136.5 109.148 136.447 109.054 136.354C108.96 136.26 108.907 136.133 108.907 136C108.907 135.867 108.96 135.74 109.054 135.646C109.148 135.553 109.275 135.5 109.407 135.5C109.502 135.5 118.892 135.717 118.965 146.697C118.965 146.83 118.912 146.957 118.819 147.051C118.725 147.145 118.598 147.197 118.465 147.197L118.475 147.195Z" fill="black"/>
<path d="M147.705 125.28H132.205C132.072 125.28 131.945 125.227 131.851 125.134C131.758 125.04 131.705 124.913 131.705 124.78C131.705 124.647 131.758 124.52 131.851 124.426C131.945 124.333 132.072 124.28 132.205 124.28H147.705C147.838 124.28 147.965 124.333 148.059 124.426C148.152 124.52 148.205 124.647 148.205 124.78C148.205 124.913 148.152 125.04 148.059 125.134C147.965 125.227 147.838 125.28 147.705 125.28Z" fill="black"/>
<path d="M133.015 204.53C132.882 204.53 132.755 204.477 132.661 204.384C132.568 204.29 132.515 204.163 132.515 204.03V181.35C132.515 181.217 132.568 181.09 132.661 180.996C132.755 180.903 132.882 180.85 133.015 180.85C133.148 180.85 133.275 180.903 133.369 180.996C133.462 181.09 133.515 181.217 133.515 181.35V204.03C133.515 204.163 133.462 204.29 133.369 204.384C133.275 204.477 133.148 204.53 133.015 204.53Z" fill="black"/>
<path d="M112.412 145.07H89.735C89.6024 145.07 89.4752 145.017 89.3814 144.924C89.2877 144.83 89.235 144.703 89.235 144.57C89.235 144.437 89.2877 144.31 89.3814 144.216C89.4752 144.123 89.6024 144.07 89.735 144.07H112.412C112.545 144.07 112.672 144.123 112.766 144.216C112.86 144.31 112.912 144.437 112.912 144.57C112.912 144.703 112.86 144.83 112.766 144.924C112.672 145.017 112.545 145.07 112.412 145.07Z" fill="black"/>
<path d="M57.955 178.973C57.8525 178.973 57.7525 178.941 57.6684 178.883C57.5844 178.824 57.5203 178.741 57.485 178.645C54.585 170.735 48.59 164.313 48.53 164.25C48.4388 164.154 48.3897 164.025 48.3934 163.892C48.3972 163.759 48.4535 163.634 48.55 163.542C48.6464 163.451 48.7752 163.402 48.9079 163.406C49.0406 163.41 49.1663 163.466 49.2575 163.563C49.3175 163.628 55.4525 170.193 58.425 178.313C58.4701 178.437 58.4642 178.574 58.4084 178.694C58.3527 178.814 58.2516 178.907 58.1275 178.953C58.0717 178.97 58.0132 178.977 57.955 178.973Z" fill="black"/>
<path d="M60.785 179.788C60.6524 179.788 60.5252 179.735 60.4314 179.641C60.3377 179.547 60.285 179.42 60.285 179.288V172.44C60.285 172.307 60.3377 172.18 60.4314 172.086C60.5252 171.993 60.6524 171.94 60.785 171.94C60.9176 171.94 61.0448 171.993 61.1385 172.086C61.2323 172.18 61.285 172.307 61.285 172.44V179.288C61.285 179.42 61.2323 179.547 61.1385 179.641C61.0448 179.735 60.9176 179.788 60.785 179.788Z" fill="black"/>
<path d="M75.5175 189.585C75.5168 187.948 74.8663 186.379 73.7089 185.221C72.5514 184.064 70.9818 183.413 69.345 183.413H67.97V178.75H50.955V183.415H49.58C47.9429 183.415 46.3729 184.065 45.2154 185.223C44.0578 186.38 43.4075 187.95 43.4075 189.587C43.4095 191.223 44.0607 192.791 45.2182 193.946C46.3756 195.102 47.9445 195.751 49.58 195.75C48.7695 195.75 47.9669 195.909 47.218 196.219C46.4692 196.529 45.7887 196.983 45.2155 197.556C44.6423 198.129 44.1876 198.81 43.8774 199.558C43.5671 200.307 43.4075 201.11 43.4075 201.92C43.4071 202.731 43.5666 203.533 43.8767 204.283C44.1867 205.032 44.6414 205.712 45.2146 206.285C45.7879 206.859 46.4684 207.313 47.2175 207.623C47.9665 207.933 48.7693 208.093 49.58 208.092H69.345C70.982 208.092 72.552 207.442 73.7096 206.285C74.8672 205.127 75.5175 203.557 75.5175 201.92C75.5168 200.283 74.8662 198.714 73.7087 197.557C72.5512 196.4 70.9816 195.75 69.345 195.75C70.9807 195.75 72.5496 195.101 73.7069 193.945C74.8643 192.789 75.5155 191.221 75.5175 189.585Z" fill="#6DC8C2"/>
<path d="M69.605 196.285H62.6325C62.4999 196.285 62.3727 196.232 62.279 196.139C62.1852 196.045 62.1325 195.918 62.1325 195.785C62.1325 195.652 62.1852 195.525 62.279 195.431C62.3727 195.338 62.4999 195.285 62.6325 195.285H69.605C69.7376 195.285 69.8648 195.338 69.9586 195.431C70.0523 195.525 70.105 195.652 70.105 195.785C70.105 195.918 70.0523 196.045 69.9586 196.139C69.8648 196.232 69.7376 196.285 69.605 196.285Z" fill="black"/>
<path d="M52.86 196.25H49.21C49.0774 196.25 48.9502 196.197 48.8565 196.104C48.7627 196.01 48.71 195.883 48.71 195.75C48.71 195.617 48.7627 195.49 48.8565 195.396C48.9502 195.303 49.0774 195.25 49.21 195.25H52.86C52.9926 195.25 53.1198 195.303 53.2136 195.396C53.3073 195.49 53.36 195.617 53.36 195.75C53.36 195.883 53.3073 196.01 53.2136 196.104C53.1198 196.197 52.9926 196.25 52.86 196.25Z" fill="black"/>
<path d="M59.465 180.2C64.2492 180.2 68.1275 179.392 68.1275 178.395C68.1275 177.398 64.2492 176.59 59.465 176.59C54.6808 176.59 50.8025 177.398 50.8025 178.395C50.8025 179.392 54.6808 180.2 59.465 180.2Z" fill="black"/>
<path d="M60.785 172.44C63.0425 172.44 64.8725 170.61 64.8725 168.352C64.8725 166.095 63.0425 164.265 60.785 164.265C58.5275 164.265 56.6975 166.095 56.6975 168.352C56.6975 170.61 58.5275 172.44 60.785 172.44Z" fill="#FFBB45"/>
<path d="M47.4225 166.615C49.8415 166.615 51.8025 164.654 51.8025 162.235C51.8025 159.816 49.8415 157.855 47.4225 157.855C45.0035 157.855 43.0425 159.816 43.0425 162.235C43.0425 164.654 45.0035 166.615 47.4225 166.615Z" fill="#FFBB45"/>
<path d="M100.152 99.385C99.6525 98.02 98.93 96.2675 97.915 94.8025C97.055 93.5525 96.0725 93.0275 94.9925 93.215C94.6802 93.2523 94.3799 93.3581 94.1133 93.525C93.8466 93.6918 93.6201 93.9155 93.45 94.18C92.5975 95.5475 93.165 97.96 93.45 98.93L93.4875 99.055L92.535 99.3575L92.49 99.21C92.0925 97.84 91.575 95.2975 92.6025 93.65C92.846 93.265 93.171 92.9381 93.5545 92.6923C93.9381 92.4465 94.3709 92.2879 94.8225 92.2275C96.3 91.9775 97.655 92.6625 98.74 94.2275C99.825 95.7925 100.562 97.6125 101.092 99.03L100.152 99.385Z" fill="black"/>
<path d="M52.015 81.73C53.8252 81.73 55.2926 80.2626 55.2926 78.4525C55.2926 76.6424 53.8252 75.175 52.015 75.175C50.2049 75.175 48.7375 76.6424 48.7375 78.4525C48.7375 80.2626 50.2049 81.73 52.015 81.73Z" fill="#735BBE"/>
<path d="M51.7251 83.405C50.6329 83.3977 49.5568 83.6677 48.5975 84.1898C47.6381 84.7119 46.827 85.4689 46.2401 86.39C47.8171 87.638 49.7554 88.3428 51.7657 88.3991C53.776 88.4554 55.7507 87.8603 57.3951 86.7025C56.8323 85.6952 56.0091 84.8576 55.0116 84.2775C54.0141 83.6974 52.879 83.396 51.7251 83.405Z" fill="#735BBE"/>
<path d="M51.8175 88.635C50.0736 88.635 48.3688 88.1179 46.9188 87.149C45.4687 86.1801 44.3386 84.803 43.6712 83.1918C43.0038 81.5806 42.8292 79.8077 43.1694 78.0973C43.5097 76.3869 44.3494 74.8157 45.5826 73.5826C46.8157 72.3494 48.3869 71.5097 50.0973 71.1694C51.8077 70.8292 53.5806 71.0038 55.1918 71.6712C56.803 72.3386 58.1801 73.4687 59.149 74.9188C60.1179 76.3688 60.635 78.0736 60.635 79.8175C60.6324 82.1552 59.7025 84.3965 58.0495 86.0495C56.3965 87.7025 54.1552 88.6324 51.8175 88.635ZM51.8175 72.0025C50.2712 72.0025 48.7597 72.4611 47.4741 73.3202C46.1884 74.1793 45.1864 75.4003 44.5948 76.829C44.0032 78.2576 43.8485 79.8295 44.1504 81.346C44.4522 82.8626 45.197 84.2555 46.2906 85.3487C47.3841 86.4419 48.7773 87.1862 50.2939 87.4876C51.8105 87.789 53.3824 87.6338 54.8109 87.0417C56.2393 86.4496 57.46 85.4473 58.3187 84.1614C59.1774 82.8754 59.6355 81.3638 59.635 79.8175C59.6324 77.7452 58.8078 75.7586 57.3422 74.2935C55.8767 72.8284 53.8898 72.0045 51.8175 72.0025Z" fill="black"/>
<circle cx="17.5" cy="104.5" r="17.5" fill="#184294"/>
<circle cx="78" cy="30" r="15" fill="#184294"/>
<circle cx="225" cy="196" r="10" fill="#184294"/>
</svg>
