<svg width="293" height="250" viewBox="0 0 293 250" fill="none" xmlns="http://www.w3.org/2000/svg">
<ellipse cx="107" cy="61" rx="107" ry="25" fill="#184294"/>
<ellipse cx="174.5" cy="168" rx="118.5" ry="26" fill="#184294"/>
<path d="M130.12 219.258C169.2 219.258 200.88 214.37 200.88 208.34C200.88 202.31 169.2 197.423 130.12 197.423C91.0403 197.423 59.36 202.31 59.36 208.34C59.36 214.37 91.0403 219.258 130.12 219.258Z" fill="#BC56EC"/>
<path d="M87.8997 186.355L87.5308 187.152C87.2975 187.655 87.5166 188.253 88.0202 188.486L107.111 197.331C107.614 197.565 108.212 197.345 108.445 196.842L108.814 196.046C109.047 195.542 108.828 194.945 108.325 194.711L89.2341 185.866C88.7305 185.633 88.1331 185.852 87.8997 186.355Z" fill="black"/>
<path d="M88.3025 179.785L97.8025 182.285L110.635 188.232L108.445 192.962C108.244 193.395 107.88 193.73 107.432 193.894C106.985 194.058 106.49 194.038 106.057 193.837L89.165 186.012L88.3025 179.785Z" fill="white"/>
<path d="M106.81 194.5C106.478 194.5 106.149 194.428 105.848 194.288L88.7075 186.35L87.7075 179.1L98.0175 181.822L111.3 188L108.898 193.185C108.71 193.58 108.415 193.913 108.045 194.146C107.675 194.379 107.247 194.502 106.81 194.5ZM89.625 185.673L106.268 193.385C106.423 193.458 106.591 193.5 106.763 193.507C106.934 193.515 107.105 193.488 107.266 193.429C107.427 193.37 107.575 193.28 107.701 193.163C107.827 193.047 107.929 192.906 108 192.75L109.983 188.473L97.6325 182.75L88.9 180.452L89.625 185.673Z" fill="black"/>
<path d="M90.5 189.63L79.695 184.63C79.2977 184.446 78.9897 184.111 78.8388 183.7C78.6879 183.289 78.7063 182.835 78.89 182.437C79.6462 180.807 81.0191 179.543 82.7068 178.924C84.3945 178.305 86.2589 178.382 87.89 179.137C88.6977 179.512 89.4238 180.041 90.0268 180.696C90.6297 181.351 91.0978 182.118 91.4043 182.954C91.7107 183.79 91.8495 184.678 91.8128 185.567C91.776 186.456 91.5644 187.33 91.19 188.137L90.5 189.63Z" fill="black"/>
<path d="M175.543 84.2225L170 84.56C167.468 84.7139 164.978 83.8556 163.078 82.1739C161.178 80.4922 160.024 78.1249 159.87 75.5925L159.558 70.44C159.49 69.3253 159.642 68.2082 160.007 67.1525C160.371 66.0969 160.94 65.1233 161.68 64.2875C162.421 63.4517 163.319 62.77 164.323 62.2814C165.327 61.7928 166.418 61.5069 167.533 61.44L171.853 61.1775C174.978 60.9901 178.051 62.0514 180.395 64.128C182.738 66.2047 184.162 69.1268 184.353 72.2525L184.468 74.1525C184.619 76.6714 183.764 79.1474 182.09 81.0359C180.417 82.9243 178.061 84.0706 175.543 84.2225Z" fill="black"/>
<path d="M80.9075 209C80.7884 209.002 80.6726 208.961 80.5809 208.885C80.4892 208.809 80.4278 208.702 80.4075 208.585L67 131.583L46.55 208.545C46.5129 208.669 46.4293 208.774 46.3166 208.837C46.204 208.901 46.0711 208.918 45.9459 208.886C45.8207 208.853 45.7129 208.774 45.6452 208.664C45.5774 208.553 45.5549 208.421 45.5825 208.295L67.2 126.923L81.4 208.423C81.4227 208.552 81.3934 208.685 81.3185 208.793C81.2436 208.901 81.1292 208.976 81 209C80.9692 209.003 80.9383 209.003 80.9075 209Z" fill="black"/>
<path d="M158.785 122.293H57.5425C56.3289 122.293 55.345 123.276 55.345 124.49V127.055C55.345 128.269 56.3289 129.253 57.5425 129.253H158.785C159.999 129.253 160.982 128.269 160.982 127.055V124.49C160.982 123.276 159.999 122.293 158.785 122.293Z" fill="black"/>
<path d="M151.807 49.785H133.848C131.239 49.785 129.125 51.8993 129.125 54.5075C129.125 57.1157 131.239 59.23 133.848 59.23H151.807C154.416 59.23 156.53 57.1157 156.53 54.5075C156.53 51.8993 154.416 49.785 151.807 49.785Z" fill="white"/>
<path d="M151.81 59.7275H133.848C133.152 59.7427 132.461 59.6189 131.814 59.3634C131.167 59.1078 130.578 58.7256 130.081 58.2393C129.584 57.753 129.189 57.1722 128.919 56.5312C128.65 55.8901 128.511 55.2017 128.511 54.5063C128.511 53.8108 128.65 53.1224 128.919 52.4813C129.189 51.8403 129.584 51.2596 130.081 50.7732C130.578 50.2869 131.167 49.9047 131.814 49.6491C132.461 49.3936 133.152 49.2698 133.848 49.285H151.81C152.505 49.2698 153.197 49.3936 153.843 49.6491C154.49 49.9047 155.079 50.2869 155.577 50.7732C156.074 51.2596 156.469 51.8403 156.738 52.4813C157.008 53.1224 157.147 53.8108 157.147 54.5063C157.147 55.2017 157.008 55.8901 156.738 56.5312C156.469 57.1722 156.074 57.753 155.577 58.2393C155.079 58.7256 154.49 59.1078 153.843 59.3634C153.197 59.6189 152.505 59.7427 151.81 59.7275ZM133.848 50.285C133.285 50.2713 132.724 50.3704 132.2 50.5763C131.676 50.7823 131.199 51.0911 130.796 51.4844C130.393 51.8777 130.072 52.3477 129.854 52.8667C129.635 53.3856 129.522 53.9431 129.522 54.5063C129.522 55.0694 129.635 55.6269 129.854 56.1458C130.072 56.6648 130.393 57.1348 130.796 57.5281C131.199 57.9215 131.676 58.2302 132.2 58.4362C132.724 58.6422 133.285 58.7412 133.848 58.7275H151.81C152.373 58.7412 152.933 58.6422 153.457 58.4362C153.981 58.2302 154.459 57.9215 154.862 57.5281C155.265 57.1348 155.585 56.6648 155.804 56.1458C156.023 55.6269 156.135 55.0694 156.135 54.5063C156.135 53.9431 156.023 53.3856 155.804 52.8667C155.585 52.3477 155.265 51.8777 154.862 51.4844C154.459 51.0911 153.981 50.7823 153.457 50.5763C152.933 50.3704 152.373 50.2713 151.81 50.285H133.848Z" fill="black"/>
<path d="M136.923 56.7825L135.643 56.1075C135.624 56.0976 135.603 56.0925 135.581 56.0925C135.56 56.0925 135.539 56.0976 135.52 56.1075L134.24 56.7825C134.218 56.7934 134.194 56.7981 134.169 56.796C134.145 56.7939 134.122 56.7851 134.102 56.7707C134.082 56.7562 134.067 56.7365 134.058 56.7139C134.049 56.6913 134.046 56.6666 134.05 56.6425L134.3 55.2175C134.303 55.1961 134.301 55.1744 134.294 55.154C134.287 55.1336 134.275 55.1151 134.26 55.1L133.225 54.1C133.207 54.0831 133.195 54.0615 133.189 54.0378C133.183 54.0141 133.184 53.9892 133.192 53.966C133.199 53.9428 133.213 53.9222 133.232 53.9065C133.251 53.8909 133.273 53.8808 133.298 53.8775L134.73 53.6675C134.751 53.6649 134.771 53.6572 134.788 53.645C134.805 53.6327 134.818 53.6164 134.828 53.5975L135.47 52.3C135.481 52.2777 135.497 52.2589 135.518 52.2458C135.539 52.2326 135.563 52.2256 135.588 52.2256C135.612 52.2256 135.636 52.2326 135.657 52.2458C135.678 52.2589 135.694 52.2777 135.705 52.3L136.345 53.5975C136.355 53.6165 136.369 53.6328 136.386 53.645C136.404 53.6572 136.424 53.6649 136.445 53.6675L137.875 53.8775C137.899 53.8808 137.922 53.8909 137.941 53.9065C137.959 53.9222 137.973 53.9428 137.981 53.966C137.989 53.9892 137.989 54.0141 137.984 54.0378C137.978 54.0615 137.965 54.0831 137.948 54.1L136.913 55.1C136.897 55.1152 136.886 55.1338 136.88 55.1542C136.873 55.1746 136.871 55.1963 136.875 55.2175L137.125 56.6425C137.131 56.6683 137.129 56.6954 137.119 56.7201C137.11 56.7448 137.093 56.7661 137.071 56.7811C137.049 56.7962 137.024 56.8044 136.997 56.8047C136.971 56.8049 136.945 56.7972 136.923 56.7825Z" fill="#FFBB45"/>
<path d="M144.17 56.7825L142.89 56.1075C142.871 56.0976 142.85 56.0925 142.829 56.0925C142.807 56.0925 142.786 56.0976 142.768 56.1075L141.488 56.7825C141.466 56.7941 141.441 56.7993 141.416 56.7976C141.391 56.7958 141.368 56.7871 141.348 56.7726C141.328 56.758 141.312 56.738 141.303 56.7151C141.293 56.6921 141.291 56.6669 141.295 56.6425L141.545 55.2175C141.549 55.1963 141.548 55.1745 141.541 55.154C141.535 55.1335 141.523 55.1149 141.508 55.1L140.473 54.1C140.455 54.0831 140.442 54.0615 140.436 54.0378C140.431 54.0141 140.431 53.9892 140.439 53.966C140.447 53.9428 140.461 53.9222 140.479 53.9065C140.498 53.8909 140.521 53.8808 140.545 53.8775L141.977 53.6675C141.998 53.6649 142.018 53.6572 142.035 53.645C142.052 53.6327 142.066 53.6164 142.075 53.5975L142.715 52.3C142.726 52.2779 142.743 52.2592 142.764 52.2462C142.785 52.2332 142.809 52.2263 142.834 52.2263C142.858 52.2263 142.883 52.2332 142.904 52.2462C142.925 52.2592 142.942 52.2779 142.953 52.3L143.593 53.5975C143.602 53.6164 143.615 53.6327 143.632 53.645C143.649 53.6572 143.669 53.6649 143.69 53.6675L145.123 53.8775C145.147 53.8808 145.169 53.8909 145.188 53.9065C145.207 53.9222 145.221 53.9428 145.228 53.966C145.236 53.9892 145.237 54.0141 145.231 54.0378C145.225 54.0615 145.213 54.0831 145.195 54.1L144.16 55.1C144.145 55.1149 144.133 55.1335 144.126 55.154C144.12 55.1745 144.119 55.1963 144.123 55.2175L144.373 56.6425C144.378 56.6683 144.376 56.6954 144.367 56.7201C144.357 56.7448 144.341 56.7661 144.319 56.7811C144.297 56.7962 144.271 56.8044 144.245 56.8047C144.218 56.8049 144.192 56.7972 144.17 56.7825Z" fill="#FFBB45"/>
<path d="M151.417 56.7825L150.138 56.1075C150.119 56.0976 150.098 56.0925 150.076 56.0925C150.055 56.0925 150.034 56.0976 150.015 56.1075L148.735 56.7825C148.713 56.7941 148.688 56.7993 148.664 56.7976C148.639 56.7958 148.615 56.7871 148.595 56.7726C148.575 56.758 148.559 56.738 148.55 56.7151C148.541 56.6921 148.538 56.6669 148.542 56.6425L148.792 55.2175C148.796 55.1963 148.794 55.1746 148.788 55.1542C148.781 55.1338 148.77 55.1152 148.755 55.1L147.72 54.1C147.702 54.0831 147.69 54.0615 147.684 54.0378C147.678 54.0141 147.679 53.9892 147.687 53.966C147.694 53.9428 147.708 53.9222 147.727 53.9065C147.746 53.8909 147.768 53.8808 147.792 53.8775L149.223 53.6675C149.244 53.6647 149.264 53.6569 149.281 53.6447C149.298 53.6325 149.313 53.6163 149.322 53.5975L149.962 52.3C149.973 52.2777 149.99 52.2589 150.01 52.2458C150.031 52.2326 150.055 52.2256 150.08 52.2256C150.105 52.2256 150.129 52.2326 150.15 52.2458C150.17 52.2589 150.187 52.2777 150.197 52.3L150.837 53.5975C150.847 53.6163 150.862 53.6325 150.879 53.6447C150.896 53.6569 150.916 53.6647 150.938 53.6675L152.37 53.8775C152.394 53.8808 152.417 53.8909 152.436 53.9065C152.454 53.9222 152.468 53.9428 152.476 53.966C152.484 53.9892 152.484 54.0141 152.479 54.0378C152.473 54.0615 152.46 54.0831 152.443 54.1L151.405 55.1C151.39 55.1152 151.379 55.1338 151.372 55.1542C151.366 55.1746 151.364 55.1963 151.367 55.2175L151.617 56.6425C151.623 56.668 151.621 56.6945 151.611 56.7187C151.602 56.743 151.585 56.7639 151.564 56.7788C151.543 56.7938 151.517 56.8021 151.491 56.8027C151.465 56.8034 151.44 56.7963 151.417 56.7825Z" fill="#FFBB45"/>
<path d="M139.25 64.155H75.625C72.9713 64.155 70.82 66.3063 70.82 68.96V108.283C70.82 110.936 72.9713 113.088 75.625 113.088H139.25C141.904 113.088 144.055 110.936 144.055 108.283V68.96C144.055 66.3063 141.904 64.155 139.25 64.155Z" fill="black"/>
<path d="M135.545 68.3775H79.33C77.3072 68.3775 75.6675 70.0173 75.6675 72.04V106.188C75.6675 108.21 77.3072 109.85 79.33 109.85H135.545C137.568 109.85 139.207 108.21 139.207 106.188V72.04C139.207 70.0173 137.568 68.3775 135.545 68.3775Z" fill="white"/>
<path d="M111.872 75.3075H95.9175C94.5009 75.3075 93.3525 76.4559 93.3525 77.8725V101.655C93.3525 103.072 94.5009 104.22 95.9175 104.22H111.872C113.289 104.22 114.437 103.072 114.437 101.655V77.8725C114.437 76.4559 113.289 75.3075 111.872 75.3075Z" fill="#735BBE"/>
<path d="M87.6425 74.5225H82.01C81.4177 74.5225 80.9375 75.0027 80.9375 75.595V81.2275C80.9375 81.8198 81.4177 82.3 82.01 82.3H87.6425C88.2348 82.3 88.715 81.8198 88.715 81.2275V75.595C88.715 75.0027 88.2348 74.5225 87.6425 74.5225Z" fill="#735BBE"/>
<path d="M87.435 85.9575H82.2175C81.5106 85.9575 80.9375 86.5306 80.9375 87.2375V92.455C80.9375 93.1619 81.5106 93.735 82.2175 93.735H87.435C88.1419 93.735 88.715 93.1619 88.715 92.455V87.2375C88.715 86.5306 88.1419 85.9575 87.435 85.9575Z" fill="#BC56EC"/>
<path d="M87.42 97.39H82.2325C81.5173 97.39 80.9375 97.9698 80.9375 98.685V103.872C80.9375 104.588 81.5173 105.168 82.2325 105.168H87.42C88.1352 105.168 88.715 104.588 88.715 103.872V98.685C88.715 97.9698 88.1352 97.39 87.42 97.39Z" fill="#FFBB45"/>
<path d="M135.268 76.3725H118.578C118.445 76.3725 118.318 76.3198 118.224 76.2261C118.13 76.1323 118.078 76.0051 118.078 75.8725C118.078 75.7399 118.13 75.6127 118.224 75.5189C118.318 75.4252 118.445 75.3725 118.578 75.3725H135.268C135.4 75.3725 135.527 75.4252 135.621 75.5189C135.715 75.6127 135.768 75.7399 135.768 75.8725C135.768 76.0051 135.715 76.1323 135.621 76.2261C135.527 76.3198 135.4 76.3725 135.268 76.3725Z" fill="black"/>
<path d="M135.268 81H118.578C118.445 81 118.318 80.9473 118.224 80.8536C118.13 80.7598 118.078 80.6326 118.078 80.5C118.078 80.3674 118.13 80.2402 118.224 80.1464C118.318 80.0527 118.445 80 118.578 80H135.268C135.4 80 135.527 80.0527 135.621 80.1464C135.715 80.2402 135.768 80.3674 135.768 80.5C135.768 80.6326 135.715 80.7598 135.621 80.8536C135.527 80.9473 135.4 81 135.268 81Z" fill="black"/>
<path d="M130.085 85.605H118.585C118.452 85.605 118.325 85.5523 118.231 85.4586C118.138 85.3648 118.085 85.2376 118.085 85.105C118.085 84.9724 118.138 84.8452 118.231 84.7515C118.325 84.6577 118.452 84.605 118.585 84.605H130.085C130.218 84.605 130.345 84.6577 130.439 84.7515C130.532 84.8452 130.585 84.9724 130.585 85.105C130.585 85.2376 130.532 85.3648 130.439 85.4586C130.345 85.5523 130.218 85.605 130.085 85.605Z" fill="black"/>
<path d="M127.267 89.085H120.312C119.088 89.085 118.095 90.0778 118.095 91.3025C118.095 92.5272 119.088 93.52 120.312 93.52H127.267C128.492 93.52 129.485 92.5272 129.485 91.3025C129.485 90.0778 128.492 89.085 127.267 89.085Z" fill="#BC56EC"/>
<path d="M134.115 93.3875C135.265 93.3875 136.197 92.4551 136.197 91.305C136.197 90.1549 135.265 89.2225 134.115 89.2225C132.965 89.2225 132.032 90.1549 132.032 91.305C132.032 92.4551 132.965 93.3875 134.115 93.3875Z" fill="#FB6D6D"/>
<path d="M108.097 122.292H90.6775L97.81 113.087H115.945L108.097 122.292Z" fill="black"/>
<path d="M183.425 154.54C183.384 154.54 183.343 154.535 183.303 154.525C183.239 154.509 183.179 154.48 183.126 154.441C183.073 154.402 183.029 154.353 182.995 154.296C182.962 154.24 182.939 154.177 182.93 154.112C182.92 154.047 182.924 153.981 182.94 153.917L189.52 127.918C189.553 127.789 189.636 127.679 189.75 127.611C189.865 127.544 190.001 127.524 190.13 127.557C190.259 127.591 190.369 127.674 190.436 127.788C190.504 127.902 190.523 128.039 190.49 128.167L183.91 154.167C183.882 154.275 183.819 154.369 183.731 154.437C183.643 154.504 183.536 154.54 183.425 154.54Z" fill="black"/>
<path d="M147.288 207.907C147.265 207.91 147.242 207.91 147.22 207.907C147.155 207.899 147.092 207.877 147.035 207.845C146.978 207.812 146.928 207.768 146.888 207.715C146.848 207.663 146.819 207.604 146.802 207.54C146.785 207.476 146.781 207.41 146.79 207.345L153.523 157.642C153.531 157.577 153.553 157.514 153.586 157.456C153.619 157.399 153.663 157.349 153.716 157.308C153.768 157.268 153.828 157.239 153.892 157.221C153.956 157.204 154.023 157.2 154.089 157.209C154.154 157.217 154.218 157.239 154.275 157.272C154.332 157.305 154.383 157.349 154.423 157.402C154.463 157.455 154.493 157.515 154.51 157.579C154.527 157.643 154.531 157.709 154.523 157.775L147.783 207.475C147.766 207.595 147.707 207.705 147.616 207.784C147.525 207.864 147.408 207.907 147.288 207.907Z" fill="black"/>
<path d="M190.769 101.123L185.698 123.462C185.27 125.346 186.451 127.219 188.334 127.647L192.152 128.514C194.036 128.941 195.909 127.761 196.337 125.877L201.408 103.538C201.836 101.654 200.656 99.7807 198.772 99.3531L194.954 98.4864C193.07 98.0588 191.197 99.2392 190.769 101.123Z" fill="#C7B8F8"/>
<path d="M183.777 207.907C183.656 207.909 183.539 207.866 183.447 207.787C183.355 207.708 183.294 207.598 183.277 207.477L176.25 157.773C176.231 157.64 176.266 157.505 176.347 157.398C176.428 157.292 176.547 157.221 176.68 157.202C176.813 157.184 176.947 157.219 177.054 157.299C177.161 157.38 177.231 157.5 177.25 157.633L184.275 207.337C184.294 207.469 184.259 207.602 184.179 207.708C184.1 207.814 183.981 207.884 183.85 207.902C183.826 207.907 183.802 207.909 183.777 207.907Z" fill="black"/>
<path d="M181.45 191.432H149.518C149.385 191.432 149.258 191.38 149.164 191.286C149.07 191.192 149.018 191.065 149.018 190.932C149.018 190.8 149.07 190.673 149.164 190.579C149.258 190.485 149.385 190.432 149.518 190.432H181.45C181.583 190.432 181.71 190.485 181.804 190.579C181.897 190.673 181.95 190.8 181.95 190.932C181.95 191.065 181.897 191.192 181.804 191.286C181.71 191.38 181.583 191.432 181.45 191.432Z" fill="black"/>
<path d="M181.007 145.973H150.742C148.834 145.973 147.287 147.519 147.287 149.428V154.247C147.287 156.156 148.834 157.702 150.742 157.702H181.007C182.916 157.702 184.462 156.156 184.462 154.247V149.428C184.462 147.519 182.916 145.973 181.007 145.973Z" fill="#C7B8F8"/>
<path d="M185.382 70.05C189.476 70.05 192.795 66.7313 192.795 62.6375C192.795 58.5437 189.476 55.225 185.382 55.225C181.289 55.225 177.97 58.5437 177.97 62.6375C177.97 66.7313 181.289 70.05 185.382 70.05Z" fill="black"/>
<path d="M198.992 65.895C204.488 65.895 208.942 61.4402 208.942 55.945C208.942 50.4498 204.488 45.995 198.992 45.995C193.497 45.995 189.042 50.4498 189.042 55.945C189.042 61.4402 193.497 65.895 198.992 65.895Z" fill="black"/>
<path d="M180.54 76.6675C180.54 75.8055 180.198 74.9789 179.588 74.3694C178.979 73.7599 178.152 73.4175 177.29 73.4175C177.138 73.419 176.986 73.4307 176.835 73.4525L176.212 64.9225L164.08 66.225C162.834 66.3577 161.681 66.9467 160.843 67.8786C160.006 68.8105 159.542 70.0194 159.542 71.2725V72.645C159.553 74.2356 159.111 75.7965 158.268 77.145L158.245 77.1775V77.19C158.153 77.3289 158.092 77.4858 158.065 77.6504C158.038 77.8149 158.047 77.9832 158.091 78.144C158.134 78.3049 158.211 78.4546 158.317 78.5833C158.423 78.7119 158.555 78.8165 158.705 78.89L159.55 79.305V82.52C159.55 83.1591 159.688 83.7906 159.955 84.3712C160.223 84.9517 160.613 85.4675 161.098 85.883C161.584 86.2985 162.154 86.6039 162.768 86.7782C163.383 86.9524 164.029 86.9914 164.66 86.8925L167.775 86.4075L168.4 91.75L178.318 90.58L177.645 84.8775H177.675L177.312 79.915C178.17 79.9091 178.991 79.5644 179.595 78.9561C180.2 78.3478 180.539 77.5251 180.54 76.6675Z" fill="white"/>
<path d="M167.963 92.305L167.335 87L164.735 87.405C164.032 87.5147 163.314 87.471 162.63 87.2768C161.946 87.0826 161.312 86.7426 160.772 86.2801C160.232 85.8176 159.798 85.2435 159.501 84.5975C159.204 83.9514 159.05 83.2487 159.05 82.5375V79.63L158.483 79.3525C158.271 79.2496 158.084 79.103 157.934 78.9224C157.783 78.7419 157.673 78.5314 157.61 78.305C157.547 78.0737 157.534 77.8318 157.57 77.5949C157.607 77.3581 157.693 77.1316 157.823 76.93L157.85 76.8875C158.646 75.6184 159.063 74.1481 159.05 72.65V71.2775C159.047 69.901 159.555 68.5723 160.475 67.5482C161.394 66.5241 162.661 65.8772 164.03 65.7325L176.678 64.375L177.303 72.9225C178.236 72.9414 179.13 73.3081 179.807 73.951C180.485 74.5938 180.899 75.4664 180.967 76.398C181.035 77.3297 180.753 78.2532 180.176 78.9878C179.599 79.7225 178.769 80.2154 177.848 80.37L178.205 85.2975L178.88 91.0175L167.963 92.305ZM168.213 85.845L168.843 91.195L177.768 90.1425L177.098 84.46H177.148L176.78 79.4225H177.315C178.044 79.4205 178.743 79.1289 179.257 78.6117C179.772 78.0946 180.059 77.3943 180.058 76.665C180.056 75.9357 179.764 75.237 179.247 74.7227C178.73 74.2083 178.029 73.9205 177.3 73.9225C177.171 73.9238 177.043 73.9338 176.915 73.9525L176.385 74.0275L175.75 65.48L164.13 66.73C163.007 66.8487 161.967 67.3795 161.212 68.2198C160.457 69.0601 160.041 70.1504 160.043 71.28V72.6525C160.055 74.3411 159.584 75.998 158.685 77.4275L158.66 77.4675C158.605 77.551 158.569 77.6452 158.553 77.7439C158.537 77.8425 158.542 77.9434 158.568 78.04C158.592 78.1305 158.636 78.2146 158.696 78.2866C158.756 78.3587 158.83 78.417 158.915 78.4575L160.043 79.0075V82.535C160.043 83.1016 160.165 83.6615 160.402 84.1762C160.639 84.6909 160.985 85.1483 161.415 85.5169C161.845 85.8855 162.35 86.1566 162.895 86.3116C163.44 86.4667 164.013 86.5019 164.573 86.415L168.213 85.845Z" fill="black"/>
<path d="M162.75 83.0425C162.623 83.0425 162.495 83.0317 162.37 83.01C161.887 82.9264 161.439 82.704 161.08 82.37C160.981 82.2805 160.921 82.1551 160.914 82.0215C160.907 81.8879 160.953 81.7569 161.042 81.6575C161.132 81.558 161.257 81.4982 161.391 81.4912C161.525 81.4841 161.656 81.5305 161.755 81.62C161.972 81.8212 162.242 81.9572 162.532 82.0125C163.457 82.165 164.185 81.2625 164.192 81.2625C164.276 81.164 164.394 81.1016 164.523 81.0885C164.651 81.0753 164.78 81.1123 164.882 81.1918C164.983 81.2713 165.05 81.387 165.069 81.5148C165.087 81.6427 165.055 81.7726 164.98 81.8775C164.927 81.935 164.045 83.0425 162.75 83.0425Z" fill="black"/>
<path d="M164.798 76.265C165.232 76.265 165.585 75.9124 165.585 75.4775C165.585 75.0426 165.232 74.69 164.798 74.69C164.363 74.69 164.01 75.0426 164.01 75.4775C164.01 75.9124 164.363 76.265 164.798 76.265Z" fill="black"/>
<path d="M176.96 78.355C176.694 78.355 176.434 78.2761 176.213 78.1283C175.992 77.9805 175.819 77.7705 175.717 77.5247C175.616 77.279 175.589 77.0085 175.641 76.7476C175.693 76.4867 175.821 76.2471 176.009 76.059C176.197 75.8709 176.437 75.7428 176.698 75.6909C176.959 75.639 177.229 75.6656 177.475 75.7674C177.72 75.8692 177.931 76.0416 178.078 76.2628C178.226 76.484 178.305 76.744 178.305 77.01C178.305 77.3667 178.163 77.7088 177.911 77.9611C177.659 78.2133 177.317 78.355 176.96 78.355ZM176.96 76.665C176.892 76.665 176.825 76.6852 176.768 76.7232C176.712 76.7611 176.667 76.8149 176.641 76.878C176.615 76.941 176.608 77.0104 176.622 77.0773C176.635 77.1442 176.668 77.2057 176.716 77.254C176.764 77.3022 176.826 77.3351 176.893 77.3484C176.96 77.3617 177.029 77.3549 177.092 77.3287C177.155 77.3026 177.209 77.2584 177.247 77.2017C177.285 77.145 177.305 77.0782 177.305 77.01C177.305 76.9185 177.269 76.8308 177.204 76.7661C177.139 76.7014 177.052 76.665 176.96 76.665Z" fill="black"/>
<path d="M168.91 90.4L184.125 89.71C186.401 89.5828 188.635 90.3601 190.34 91.8725C192.533 93.8725 194.248 97.545 191.86 104.22L188.5 110.483L169.5 108.183L166.218 114.568L154.292 115.93C153.997 115.963 153.085 114.393 152.958 114.195C152.008 112.749 151.39 111.11 151.148 109.398C150.523 104.518 154.148 100.598 156.955 97.03C159.935 93.225 163.895 90.6275 168.91 90.4Z" fill="#BC56EC"/>
<path d="M176.145 77.73C176.028 77.7322 175.913 77.6932 175.822 77.6196C175.73 77.546 175.668 77.4426 175.645 77.3275C175.577 76.9911 175.599 76.6428 175.707 76.3173C175.816 75.9918 176.008 75.7005 176.265 75.4725C176.513 75.2651 176.807 75.1195 177.123 75.0478C177.438 74.9761 177.766 74.9803 178.08 75.06C178.143 75.0776 178.203 75.1074 178.254 75.1479C178.306 75.1884 178.35 75.2387 178.382 75.2959C178.414 75.3531 178.435 75.4162 178.443 75.4814C178.451 75.5467 178.446 75.6129 178.429 75.6762C178.411 75.7396 178.381 75.7989 178.341 75.8507C178.3 75.9025 178.25 75.9459 178.193 75.9783C178.136 76.0106 178.073 76.0314 178.007 76.0395C177.942 76.0475 177.876 76.0426 177.812 76.025C177.659 75.9878 177.5 75.9863 177.346 76.0205C177.192 76.0548 177.048 76.1239 176.925 76.2225C176.8 76.3345 176.707 76.4772 176.654 76.6364C176.602 76.7956 176.592 76.9657 176.625 77.13C176.638 77.1943 176.638 77.2607 176.626 77.3251C176.613 77.3896 176.588 77.451 176.552 77.5058C176.516 77.5606 176.469 77.6077 176.415 77.6445C176.36 77.6812 176.299 77.7069 176.235 77.72C176.205 77.7252 176.175 77.7286 176.145 77.73Z" fill="black"/>
<path d="M164.085 66.23C164.085 66.23 163.922 76.3025 176.937 73.4425L176.217 64.9275L164.085 66.23Z" fill="black"/>
<path d="M164.98 79.8525C162.915 79.8525 161.23 77.905 161.23 75.5075C161.23 73.11 162.912 71.1625 164.98 71.1625C167.047 71.1625 168.73 73.1125 168.73 75.5075C168.73 77.9025 167.047 79.8525 164.98 79.8525ZM164.98 72.1625C163.465 72.1625 162.23 73.6625 162.23 75.5075C162.23 77.3525 163.462 78.8525 164.98 78.8525C166.497 78.8525 167.73 77.3525 167.73 75.5075C167.73 73.6625 166.5 72.1625 164.98 72.1625Z" fill="black"/>
<path d="M182.11 132.473H163V119.787H180.658C181.905 123.893 182.401 128.191 182.12 132.473H182.11Z" fill="black"/>
<path d="M133.933 122.293H124.088C123.539 122.293 122.998 122.167 122.507 121.922C122.016 121.678 121.588 121.323 121.258 120.885C120.928 120.447 120.705 119.938 120.605 119.399C120.506 118.86 120.533 118.304 120.685 117.777C120.891 117.069 121.322 116.448 121.912 116.005C122.502 115.563 123.22 115.324 123.958 115.325H134.06C134.771 115.325 135.465 115.547 136.043 115.961C136.621 116.375 137.056 116.959 137.285 117.633C137.465 118.164 137.515 118.731 137.432 119.286C137.348 119.841 137.134 120.368 136.806 120.824C136.478 121.28 136.047 121.65 135.547 121.906C135.047 122.161 134.494 122.294 133.933 122.293Z" fill="#F3EAD6"/>
<path d="M169.205 108.182L165.97 114.567L147.338 116.422C146.641 116.492 145.939 116.357 145.318 116.035L137.25 111.845C137.25 111.845 134.433 110.267 130.36 111.967L123.5 115.08C123.212 115.204 122.97 115.416 122.809 115.685C122.647 115.954 122.574 116.267 122.6 116.58V116.595C122.617 116.723 122.661 116.846 122.73 116.955C122.799 117.065 122.89 117.158 122.998 117.229C123.106 117.3 123.228 117.347 123.355 117.367C123.483 117.387 123.613 117.38 123.738 117.345L131 115.307L127.598 118.385C127.097 118.834 126.747 119.427 126.598 120.082C126.368 121.15 126.645 122.597 129.41 123.257C129.41 123.257 130.683 125.395 132.848 124.257C132.86 124.257 133.168 124.53 133.193 124.547C133.53 124.808 133.892 125.037 134.273 125.23C135.464 125.822 136.768 126.154 138.098 126.202C138.923 126.242 139.698 125.882 139.805 124.987L140.5 125.06C142.667 125.282 144.824 125.6 146.973 126.015L163.405 129.192C167.905 129.83 171.125 128.867 172.768 128.217C177.568 126.32 180.678 122.945 183.173 118.657L187.923 110.48L169.205 108.182Z" fill="white"/>
<path d="M166.342 129.908C165.339 129.905 164.336 129.833 163.342 129.69H163.317L146.875 126.5C144.755 126.09 142.592 125.773 140.447 125.55L140.177 125.522C139.872 126.29 139.077 126.748 138.07 126.698C136.669 126.644 135.296 126.294 134.04 125.67C133.633 125.461 133.246 125.217 132.882 124.94L132.785 124.855L132.767 124.84C131.017 125.572 129.672 124.513 129.095 123.688C125.977 122.87 125.88 121.015 126.095 119.97C126.267 119.21 126.675 118.523 127.26 118.007L129.09 116.353L123.855 117.815C123.663 117.869 123.461 117.881 123.263 117.851C123.066 117.821 122.877 117.749 122.71 117.64C122.543 117.53 122.4 117.387 122.293 117.218C122.186 117.05 122.116 116.86 122.087 116.662C122.043 116.242 122.132 115.817 122.344 115.451C122.556 115.084 122.878 114.794 123.265 114.622L130.152 111.505C134.415 109.725 137.37 111.332 137.495 111.402L145.537 115.582C146.075 115.863 146.684 115.98 147.287 115.918L165.645 114.09L168.915 107.637L188.75 110.077L183.607 118.912C180.737 123.84 177.357 126.945 172.955 128.685C170.848 129.507 168.604 129.922 166.342 129.908ZM163.485 128.7C166.76 129.162 169.822 128.845 172.582 127.755C176.817 126.08 179.95 123.198 182.737 118.41L187.117 110.885L169.5 108.723L166.3 115.037L147.395 116.92C146.602 116.999 145.802 116.846 145.095 116.478L137.037 112.29C136.917 112.225 134.347 110.85 130.57 112.43L123.705 115.535C123.514 115.615 123.353 115.752 123.243 115.928C123.133 116.103 123.081 116.308 123.092 116.515C123.1 116.573 123.119 116.629 123.15 116.679C123.181 116.729 123.222 116.771 123.27 116.804C123.319 116.837 123.374 116.859 123.432 116.868C123.489 116.878 123.548 116.875 123.605 116.86L132.915 114.25L127.942 118.75C127.513 119.125 127.212 119.625 127.082 120.18C126.81 121.443 127.63 122.312 129.522 122.762L129.727 122.812L129.835 122.995C129.942 123.17 130.93 124.693 132.612 123.808C132.927 123.643 133.135 123.827 133.45 124.107L133.507 124.16C133.822 124.397 134.156 124.605 134.507 124.783C135.636 125.34 136.87 125.651 138.127 125.698C138.455 125.713 139.225 125.673 139.312 124.923L139.37 124.423L140.557 124.545C142.73 124.767 144.922 125.09 147.072 125.507L163.485 128.7Z" fill="black"/>
<path d="M140.795 204.665H119.755C119.2 204.665 118.75 205.115 118.75 205.67V206.548C118.75 207.103 119.2 207.553 119.755 207.553H140.795C141.35 207.553 141.8 207.103 141.8 206.548V205.67C141.8 205.115 141.35 204.665 140.795 204.665Z" fill="black"/>
<path d="M116.352 199.542L126.022 197.818H140.167V203.033C140.167 203.509 139.978 203.966 139.641 204.304C139.304 204.641 138.847 204.83 138.37 204.83H119.75L116.352 199.542Z" fill="white"/>
<path d="M138.37 205.33H119.483L115.525 199.182L126.025 197.318H140.67V203.033C140.669 203.642 140.427 204.226 139.995 204.657C139.564 205.088 138.98 205.33 138.37 205.33ZM120.028 204.33H138.37C138.714 204.329 139.044 204.192 139.287 203.949C139.53 203.706 139.667 203.376 139.668 203.033V198.318H126.068L117.178 199.902L120.028 204.33Z" fill="black"/>
<path d="M104.358 187.955L98.545 183.705C97.6489 183.052 96.8902 182.228 96.3123 181.281C95.7345 180.335 95.3488 179.283 95.1772 178.188C95.0056 177.092 95.0516 175.973 95.3125 174.895C95.5733 173.817 96.044 172.801 96.6975 171.905L122.023 137.175C122.981 135.86 124.189 134.747 125.577 133.9C126.966 133.052 128.508 132.486 130.115 132.235C131.722 131.983 133.363 132.05 134.944 132.433C136.525 132.816 138.016 133.506 139.33 134.465C140.645 135.423 141.758 136.631 142.605 138.02C143.453 139.408 144.019 140.95 144.27 142.557C144.522 144.165 144.455 145.806 144.072 147.387C143.689 148.968 142.999 150.458 142.04 151.772L117.12 185.957C115.692 187.915 113.546 189.225 111.152 189.599C108.759 189.974 106.315 189.382 104.358 187.955Z" fill="black"/>
<path d="M164.785 150.25H120.535V141.555C120.536 138.21 121.865 135.002 124.231 132.636C126.596 130.271 129.805 128.943 133.15 128.943H182.11V132.925C182.11 137.52 180.285 141.927 177.036 145.176C173.787 148.425 169.38 150.25 164.785 150.25Z" fill="black"/>
<path d="M136.185 199.04H129C126.76 199.04 124.612 198.15 123.028 196.567C121.443 194.983 120.553 192.835 120.552 190.595V149.182H145.327V189.905C145.328 191.105 145.092 192.294 144.632 193.403C144.173 194.512 143.499 195.519 142.65 196.368C141.801 197.216 140.793 197.889 139.683 198.347C138.574 198.806 137.385 199.041 136.185 199.04Z" fill="black"/>
<path d="M107.328 188.13C107.236 188.13 107.147 188.104 107.069 188.057C106.991 188.009 106.927 187.941 106.885 187.86C106.843 187.779 106.824 187.687 106.83 187.596C106.836 187.505 106.867 187.417 106.92 187.342L120.135 168.592C120.212 168.484 120.328 168.411 120.459 168.388C120.59 168.366 120.724 168.396 120.833 168.473C120.941 168.549 121.014 168.666 121.037 168.796C121.059 168.927 121.029 169.062 120.953 169.17L107.738 187.92C107.691 187.985 107.63 188.038 107.558 188.075C107.487 188.112 107.408 188.13 107.328 188.13Z" fill="white"/>
<path d="M137.475 199.447C137.342 199.447 137.215 199.395 137.121 199.301C137.028 199.207 136.975 199.08 136.975 198.947V148.152C136.976 146.272 137.724 144.468 139.054 143.138C140.383 141.808 142.187 141.059 144.067 141.057H163.512C165.555 141.056 167.514 140.243 168.959 138.799C170.403 137.354 171.215 135.395 171.217 133.352V128.943C171.217 128.81 171.27 128.683 171.364 128.589C171.458 128.495 171.585 128.443 171.717 128.443C171.85 128.443 171.977 128.495 172.071 128.589C172.165 128.683 172.217 128.81 172.217 128.943V133.352C172.215 135.66 171.297 137.873 169.665 139.505C168.033 141.137 165.82 142.055 163.512 142.057H144.067C142.452 142.059 140.903 142.702 139.761 143.845C138.619 144.988 137.976 146.537 137.975 148.152V198.947C137.975 199.08 137.922 199.207 137.829 199.301C137.735 199.395 137.608 199.447 137.475 199.447Z" fill="white"/>
<path d="M129.405 123.75C129.297 123.749 129.193 123.714 129.107 123.649C129.02 123.584 128.958 123.493 128.927 123.39C127.767 119.417 132.025 116.962 132.07 116.937C132.127 116.905 132.19 116.883 132.256 116.875C132.321 116.866 132.387 116.871 132.451 116.888C132.514 116.905 132.574 116.935 132.626 116.975C132.678 117.015 132.722 117.065 132.755 117.122C132.788 117.18 132.809 117.243 132.818 117.308C132.826 117.373 132.822 117.44 132.804 117.503C132.787 117.567 132.758 117.627 132.717 117.679C132.677 117.731 132.627 117.775 132.57 117.808C131.918 118.21 131.333 118.711 130.835 119.293C129.835 120.498 129.508 121.78 129.898 123.11C129.935 123.237 129.92 123.374 129.856 123.49C129.792 123.607 129.685 123.693 129.558 123.73C129.508 123.744 129.457 123.75 129.405 123.75Z" fill="black"/>
<path d="M132.845 124.75C132.764 124.75 132.683 124.73 132.611 124.691C132.54 124.653 132.478 124.598 132.433 124.53C132.162 124.163 131.975 123.742 131.884 123.296C131.792 122.849 131.799 122.389 131.903 121.945C132.403 119.84 134.945 118.408 135.055 118.348C135.113 118.311 135.177 118.286 135.244 118.276C135.311 118.265 135.38 118.268 135.446 118.285C135.512 118.301 135.574 118.332 135.628 118.373C135.682 118.415 135.727 118.467 135.76 118.526C135.794 118.586 135.814 118.652 135.821 118.72C135.828 118.787 135.821 118.856 135.8 118.921C135.779 118.986 135.746 119.046 135.701 119.097C135.656 119.149 135.601 119.19 135.54 119.22C135.5 119.245 133.27 120.51 132.875 122.177C132.804 122.486 132.802 122.806 132.868 123.115C132.934 123.424 133.067 123.715 133.258 123.968C133.309 124.043 133.339 124.13 133.344 124.221C133.349 124.312 133.33 124.403 133.287 124.483C133.245 124.564 133.181 124.631 133.103 124.678C133.025 124.725 132.936 124.75 132.845 124.75Z" fill="black"/>
<path d="M139.802 125.5C139.68 125.501 139.561 125.457 139.469 125.375C139.376 125.294 139.317 125.182 139.302 125.06C139.205 124.26 137.577 123.31 136.802 122.983L136.112 122.688L138.507 120.37C138.604 120.285 138.729 120.24 138.858 120.245C138.986 120.25 139.108 120.305 139.197 120.397C139.287 120.489 139.337 120.613 139.338 120.741C139.339 120.87 139.291 120.994 139.202 121.088L137.86 122.388C138.737 122.858 140.152 123.788 140.292 124.94C140.308 125.071 140.271 125.203 140.189 125.307C140.108 125.411 139.989 125.479 139.857 125.495L139.802 125.5Z" fill="black"/>
<path d="M122.477 207.555H110.57C110.132 207.555 109.711 207.381 109.401 207.071C109.092 206.761 108.917 206.341 108.917 205.902C108.918 204.105 109.633 202.38 110.904 201.109C112.175 199.838 113.9 199.123 115.697 199.122C117.496 199.122 119.22 199.837 120.492 201.108C121.763 202.38 122.477 204.104 122.477 205.902V207.555Z" fill="black"/>
<path d="M168.23 75.2925C168.097 75.2998 167.967 75.2541 167.868 75.1655C167.769 75.0769 167.71 74.9526 167.702 74.82C167.695 74.6874 167.741 74.5573 167.829 74.4584C167.918 74.3595 168.042 74.2998 168.175 74.2925L176.06 73.42C176.193 73.4054 176.326 73.4441 176.43 73.5276C176.534 73.611 176.6 73.7324 176.615 73.865C176.63 73.9976 176.591 74.1306 176.507 74.2347C176.424 74.3387 176.303 74.4054 176.17 74.42L168.285 75.29L168.23 75.2925Z" fill="black"/>
<path d="M167.835 85.9075L168.188 88.9075L173.408 85.465C173.444 85.4414 173.472 85.4059 173.485 85.3645C173.499 85.3231 173.498 85.2782 173.482 85.2375C173.467 85.1967 173.438 85.1625 173.4 85.1407C173.362 85.1188 173.318 85.1107 173.275 85.1175L167.835 85.9075Z" fill="black"/>
<path d="M169.205 108.683C169.136 108.683 169.068 108.669 169.005 108.643C168.885 108.588 168.792 108.488 168.745 108.365C168.698 108.242 168.702 108.105 168.755 107.985L170.805 103.265C170.83 103.204 170.868 103.148 170.915 103.102C170.962 103.055 171.018 103.019 171.079 102.994C171.141 102.969 171.207 102.957 171.273 102.958C171.339 102.958 171.404 102.972 171.465 102.999C171.526 103.025 171.581 103.063 171.627 103.111C171.673 103.159 171.709 103.215 171.733 103.277C171.757 103.339 171.768 103.404 171.766 103.471C171.765 103.537 171.75 103.602 171.722 103.663L169.67 108.383C169.631 108.473 169.565 108.549 169.483 108.603C169.4 108.656 169.303 108.684 169.205 108.683Z" fill="black"/>
<path d="M120.695 180.777C120.562 180.777 120.435 180.725 120.341 180.631C120.248 180.537 120.195 180.41 120.195 180.277V139.598C120.195 139.465 120.248 139.338 120.341 139.244C120.435 139.15 120.562 139.098 120.695 139.098C120.828 139.098 120.955 139.15 121.049 139.244C121.142 139.338 121.195 139.465 121.195 139.598V180.277C121.195 180.41 121.142 180.537 121.049 180.631C120.955 180.725 120.828 180.777 120.695 180.777Z" fill="white"/>
<path d="M247.342 74.6825H201.87C198.816 74.6825 196.34 77.1584 196.34 80.2125V107.982C196.34 111.037 198.816 113.512 201.87 113.512H247.342C250.397 113.512 252.872 111.037 252.872 107.982V80.2125C252.872 77.1584 250.397 74.6825 247.342 74.6825Z" fill="white"/>
<path d="M247.342 114.012H201.87C200.271 114.011 198.739 113.375 197.608 112.244C196.478 111.114 195.842 109.581 195.84 107.982V80.2125C195.842 78.6138 196.478 77.0812 197.608 75.9508C198.739 74.8204 200.271 74.1845 201.87 74.1825H247.342C248.941 74.1845 250.474 74.8204 251.604 75.9508C252.735 77.0812 253.37 78.6138 253.372 80.2125V107.982C253.37 109.581 252.735 111.114 251.604 112.244C250.474 113.375 248.941 114.011 247.342 114.012ZM201.87 75.1825C200.536 75.1838 199.258 75.7142 198.315 76.6572C197.372 77.6002 196.841 78.8789 196.84 80.2125V107.982C196.841 109.316 197.372 110.595 198.315 111.538C199.258 112.481 200.536 113.011 201.87 113.012H247.342C248.676 113.011 249.954 112.48 250.897 111.537C251.84 110.594 252.37 109.316 252.372 107.982V80.2125C252.371 78.8789 251.841 77.6002 250.898 76.6572C249.955 75.7142 248.676 75.1838 247.342 75.1825H201.87Z" fill="black"/>
<path d="M227.165 88.88C228.097 88.88 228.852 88.1245 228.852 87.1925C228.852 86.2605 228.097 85.505 227.165 85.505C226.233 85.505 225.477 86.2605 225.477 87.1925C225.477 88.1245 226.233 88.88 227.165 88.88Z" fill="#BC56EC"/>
<path d="M233.01 88.88C233.942 88.88 234.698 88.1245 234.698 87.1925C234.698 86.2605 233.942 85.505 233.01 85.505C232.078 85.505 231.323 86.2605 231.323 87.1925C231.323 88.1245 232.078 88.88 233.01 88.88Z" fill="#BC56EC"/>
<path d="M238.857 88.88C239.789 88.88 240.545 88.1245 240.545 87.1925C240.545 86.2605 239.789 85.505 238.857 85.505C237.926 85.505 237.17 86.2605 237.17 87.1925C237.17 88.1245 237.926 88.88 238.857 88.88Z" fill="#BC56EC"/>
<path d="M244.705 88.88C245.637 88.88 246.393 88.1245 246.393 87.1925C246.393 86.2605 245.637 85.505 244.705 85.505C243.773 85.505 243.018 86.2605 243.018 87.1925C243.018 88.1245 243.773 88.88 244.705 88.88Z" fill="#BC56EC"/>
<path d="M210.855 95.435C212.665 95.435 214.133 93.9676 214.133 92.1575C214.133 90.3474 212.665 88.88 210.855 88.88C209.045 88.88 207.578 90.3474 207.578 92.1575C207.578 93.9676 209.045 95.435 210.855 95.435Z" fill="#735BBE"/>
<path d="M210.565 97.11C209.473 97.1027 208.397 97.3727 207.437 97.8948C206.478 98.4169 205.667 99.1739 205.08 100.095C206.657 101.343 208.595 102.048 210.606 102.104C212.616 102.16 214.591 101.565 216.235 100.407C215.672 99.4001 214.849 98.5626 213.851 97.9825C212.854 97.4023 211.719 97.101 210.565 97.11Z" fill="#735BBE"/>
<path d="M246.393 94H225.143C225.01 94 224.883 93.9473 224.789 93.8536C224.695 93.7598 224.643 93.6326 224.643 93.5C224.643 93.3674 224.695 93.2402 224.789 93.1464C224.883 93.0527 225.01 93 225.143 93H246.393C246.525 93 246.652 93.0527 246.746 93.1464C246.84 93.2402 246.893 93.3674 246.893 93.5C246.893 93.6326 246.84 93.7598 246.746 93.8536C246.652 93.9473 246.525 94 246.393 94Z" fill="black"/>
<path d="M246.393 97.925H225.143C225.01 97.925 224.883 97.8723 224.789 97.7786C224.695 97.6848 224.643 97.5576 224.643 97.425C224.643 97.2924 224.695 97.1652 224.789 97.0714C224.883 96.9777 225.01 96.925 225.143 96.925H246.393C246.525 96.925 246.652 96.9777 246.746 97.0714C246.84 97.1652 246.893 97.2924 246.893 97.425C246.893 97.5576 246.84 97.6848 246.746 97.7786C246.652 97.8723 246.525 97.925 246.393 97.925Z" fill="black"/>
<path d="M238.5 101.855H225.152C225.02 101.855 224.893 101.802 224.799 101.709C224.705 101.615 224.652 101.488 224.652 101.355C224.652 101.222 224.705 101.095 224.799 101.001C224.893 100.908 225.02 100.855 225.152 100.855H238.5C238.633 100.855 238.76 100.908 238.854 101.001C238.947 101.095 239 101.222 239 101.355C239 101.488 238.947 101.615 238.854 101.709C238.76 101.802 238.633 101.855 238.5 101.855Z" fill="black"/>
<path d="M210.657 102.34C208.914 102.34 207.209 101.823 205.759 100.854C204.309 99.8851 203.179 98.508 202.511 96.8968C201.844 95.2856 201.669 93.5127 202.009 91.8023C202.35 90.0919 203.189 88.5207 204.423 87.2876C205.656 86.0544 207.227 85.2146 208.937 84.8744C210.648 84.5342 212.421 84.7088 214.032 85.3762C215.643 86.0436 217.02 87.1737 217.989 88.6237C218.958 90.0738 219.475 91.7786 219.475 93.5225C219.472 95.8602 218.542 98.1015 216.889 99.7545C215.236 101.408 212.995 102.337 210.657 102.34ZM210.657 85.7075C209.111 85.7075 207.6 86.166 206.314 87.0252C205.028 87.8843 204.026 89.1053 203.435 90.5339C202.843 91.9625 202.689 93.5345 202.99 95.051C203.292 96.5675 204.037 97.9605 205.131 99.0537C206.224 100.147 207.617 100.891 209.134 101.193C210.65 101.494 212.222 101.339 213.651 100.747C215.079 100.155 216.3 99.1522 217.159 97.8663C218.017 96.5804 218.475 95.0688 218.475 93.5225C218.472 91.4502 217.648 89.4636 216.182 87.9985C214.717 86.5334 212.73 85.7095 210.657 85.7075Z" fill="black"/>
<path d="M221.183 128.943H204.688C202.594 128.943 200.898 130.639 200.898 132.732V149.227C200.898 151.321 202.594 153.018 204.688 153.018H221.183C223.276 153.018 224.973 151.321 224.973 149.227V132.732C224.973 130.639 223.276 128.943 221.183 128.943Z" fill="white"/>
<path d="M221.183 153.518H204.683C203.545 153.517 202.454 153.065 201.649 152.26C200.844 151.456 200.391 150.365 200.39 149.227V132.727C200.391 131.59 200.844 130.499 201.649 129.695C202.454 128.89 203.545 128.438 204.683 128.438H221.183C222.32 128.438 223.411 128.89 224.216 129.695C225.021 130.499 225.474 131.59 225.475 132.727V149.227C225.474 150.365 225.021 151.456 224.216 152.26C223.411 153.065 222.32 153.517 221.183 153.518ZM204.683 129.443C203.81 129.443 202.973 129.79 202.356 130.407C201.739 131.023 201.391 131.86 201.39 132.732V149.232C201.391 150.105 201.739 150.942 202.356 151.558C202.973 152.175 203.81 152.522 204.683 152.523H221.183C222.055 152.522 222.892 152.175 223.509 151.558C224.126 150.942 224.474 150.105 224.475 149.232V132.732C224.474 131.86 224.126 131.023 223.509 130.407C222.892 129.79 222.055 129.443 221.183 129.443H204.683Z" fill="black"/>
<path d="M209.085 146.678V141.02C209.083 140.918 209.108 140.818 209.159 140.73C209.21 140.642 209.284 140.569 209.372 140.52C210.162 140.078 212.335 138.605 212.587 135.622C212.68 134.545 213.152 134.037 213.65 133.915C214.225 133.775 214.817 134.375 214.9 134.455C216.252 135.865 214.84 139.097 214.71 139.387L216.497 139.34C216.847 139.331 217.196 139.391 217.522 139.517C217.849 139.643 218.147 139.831 218.401 140.073C218.655 140.314 218.858 140.603 219 140.923C219.142 141.243 219.219 141.588 219.227 141.937L219.29 144.497C219.299 144.852 219.236 145.205 219.106 145.535C218.977 145.866 218.782 146.167 218.534 146.421C218.286 146.674 217.99 146.876 217.663 147.014C217.336 147.152 216.985 147.223 216.63 147.223H209.645C209.499 147.223 209.359 147.166 209.254 147.064C209.15 146.962 209.089 146.823 209.085 146.678Z" fill="#735BBE"/>
<path d="M209.147 139.798H207.477C207.138 139.798 206.862 140.073 206.862 140.413V147.113C206.862 147.452 207.138 147.727 207.477 147.727H209.147C209.487 147.727 209.762 147.452 209.762 147.113V140.413C209.762 140.073 209.487 139.798 209.147 139.798Z" fill="#BC56EC"/>
<path d="M68.215 65.0775C71.5273 65.0775 74.2125 62.3923 74.2125 59.08C74.2125 55.7677 71.5273 53.0825 68.215 53.0825C64.9027 53.0825 62.2175 55.7677 62.2175 59.08C62.2175 62.3923 64.9027 65.0775 68.215 65.0775Z" fill="#FFBB45"/>
<path d="M68.5494 76.4702C71.5685 70.7368 70.6407 64.3117 66.4772 62.1193C62.3136 59.9269 56.491 62.7975 53.472 68.5308C50.453 74.2642 51.3807 80.6893 55.5443 82.8817C59.7078 85.0741 65.5304 82.2036 68.5494 76.4702Z" fill="#FFBB45"/>
<path d="M67.2047 97.7027C68.4302 89.0365 63.7136 81.2037 56.67 80.2077C49.6263 79.2116 42.9228 85.4294 41.6973 94.0956C40.4718 102.762 45.1883 110.595 52.232 111.591C59.2756 112.587 65.9791 106.369 67.2047 97.7027Z" fill="#FFBB45"/>
<path d="M22.6725 84.28C25.7349 84.28 28.2175 81.7974 28.2175 78.735C28.2175 75.6726 25.7349 73.19 22.6725 73.19C19.6101 73.19 17.1275 75.6726 17.1275 78.735C17.1275 81.7974 19.6101 84.28 22.6725 84.28Z" fill="#FFBB45"/>
<path d="M28.6321 101.298C32.809 100.32 35.1637 95.1232 33.8915 89.6908C32.6194 84.2583 28.202 80.6473 24.0252 81.6254C19.8483 82.6036 17.4936 87.8004 18.7658 93.2329C20.0379 98.6654 24.4553 102.276 28.6321 101.298Z" fill="#FFBB45"/>
<path d="M33.859 125.755C39.9236 124.711 43.7981 117.814 42.513 110.351C41.2279 102.887 35.2698 97.6837 29.2052 98.7279C23.1406 99.7722 19.2661 106.669 20.5512 114.132C21.8363 121.596 27.7944 126.799 33.859 125.755Z" fill="#FFBB45"/>
<path d="M41.055 150.465C40.9325 150.466 40.814 150.422 40.7218 150.341C40.6297 150.261 40.5703 150.149 40.555 150.028C37.6025 126.605 29.4675 106.25 29.385 106.058C29.3581 105.996 29.3438 105.93 29.3429 105.863C29.3421 105.796 29.3547 105.73 29.38 105.668C29.4053 105.606 29.4429 105.549 29.4904 105.502C29.5379 105.455 29.5944 105.418 29.6566 105.393C29.7187 105.368 29.7853 105.356 29.8522 105.357C29.9192 105.358 29.9852 105.373 30.0464 105.4C30.1076 105.427 30.1627 105.467 30.2084 105.515C30.2541 105.564 30.2895 105.622 30.3125 105.685C30.395 105.888 38.5775 126.347 41.5625 149.903C41.5709 149.968 41.5663 150.034 41.549 150.098C41.5316 150.161 41.5019 150.221 41.4614 150.273C41.421 150.325 41.3707 150.369 41.3134 150.401C41.2561 150.434 41.1929 150.454 41.1275 150.462L41.055 150.465Z" fill="black"/>
<path d="M47.095 150.723C46.9624 150.723 46.8352 150.67 46.7414 150.576C46.6477 150.482 46.595 150.355 46.595 150.223C46.5325 126.723 49.845 107.88 52.6325 96.2C55.6575 83.5325 58.75 76.3175 58.775 76.25C58.8289 76.1301 58.9278 76.0363 59.0503 75.9888C59.1729 75.9413 59.3092 75.944 59.4298 75.9962C59.5504 76.0485 59.6455 76.1461 59.6947 76.268C59.7439 76.3899 59.7431 76.5262 59.6925 76.6475C59.6625 76.7175 56.6025 83.8725 53.5975 96.4675C50.825 108.088 47.5325 126.85 47.5975 150.217C47.5975 150.35 47.5448 150.477 47.451 150.571C47.3573 150.665 47.2301 150.717 47.0975 150.717L47.095 150.723Z" fill="black"/>
<path d="M49.9675 150.223H37.3575C33.5509 150.223 30.465 153.308 30.465 157.115V204.765C30.465 208.572 33.5509 211.658 37.3575 211.658H49.9675C53.7741 211.658 56.86 208.572 56.86 204.765V157.115C56.86 153.308 53.7741 150.223 49.9675 150.223Z" fill="#735BBE"/>
<path d="M31.75 208.375C31.6521 208.375 31.5564 208.347 31.4746 208.293C31.3929 208.239 31.3287 208.162 31.29 208.072C31.2367 207.952 31.233 207.815 31.2798 207.692C31.3266 207.569 31.4201 207.47 31.54 207.415C35.452 205.721 39.6614 204.82 43.9242 204.765C48.1869 204.71 52.4182 205.502 56.3725 207.095C56.4915 207.147 56.5854 207.244 56.6346 207.364C56.6837 207.484 56.6841 207.619 56.6357 207.739C56.5873 207.86 56.4938 207.957 56.3752 208.01C56.2566 208.062 56.122 208.067 56 208.023C52.1678 206.479 48.0674 205.712 43.9364 205.765C39.8055 205.818 35.7262 206.691 31.935 208.333C31.8766 208.358 31.8138 208.373 31.75 208.375Z" fill="black"/>
<path d="M53.2 160.415H34.5C34.3674 160.415 34.2402 160.362 34.1464 160.269C34.0527 160.175 34 160.048 34 159.915C34 159.782 34.0527 159.655 34.1464 159.561C34.2402 159.468 34.3674 159.415 34.5 159.415H53.2C53.3326 159.415 53.4598 159.468 53.5536 159.561C53.6473 159.655 53.7 159.782 53.7 159.915C53.7 160.048 53.6473 160.175 53.5536 160.269C53.4598 160.362 53.3326 160.415 53.2 160.415Z" fill="black"/>
<path d="M48.4025 205.762C48.2699 205.762 48.1427 205.71 48.0489 205.616C47.9552 205.522 47.9025 205.395 47.9025 205.262V160.062C47.9025 159.93 47.9552 159.803 48.0489 159.709C48.1427 159.615 48.2699 159.562 48.4025 159.562C48.5351 159.562 48.6623 159.615 48.7561 159.709C48.8498 159.803 48.9025 159.93 48.9025 160.062V205.262C48.9025 205.395 48.8498 205.522 48.7561 205.616C48.6623 205.71 48.5351 205.762 48.4025 205.762Z" fill="black"/>
<path d="M39.285 205.762C39.1524 205.762 39.0252 205.71 38.9314 205.616C38.8377 205.522 38.785 205.395 38.785 205.262V160.062C38.785 159.93 38.8377 159.803 38.9314 159.709C39.0252 159.615 39.1524 159.562 39.285 159.562C39.4176 159.562 39.5448 159.615 39.6386 159.709C39.7323 159.803 39.785 159.93 39.785 160.062V205.262C39.785 205.395 39.7323 205.522 39.6386 205.616C39.5448 205.71 39.4176 205.762 39.285 205.762Z" fill="black"/>
</svg>
