<svg width="286" height="250" viewBox="0 0 286 250" fill="none" xmlns="http://www.w3.org/2000/svg">
<circle cx="118" cy="69" r="44" fill="#FCC71F"/>
<rect y="142" width="106" height="11" fill="#184294"/>
<rect x="180" y="73" width="106" height="11" fill="#184294"/>
<rect x="166" y="103" width="106" height="11" fill="#184294"/>
<path d="M218.885 201.377L207.408 43.1575C206.545 31.28 193.157 24.79 183.29 31.475L52 120.525C42.145 127.21 43.2225 142.06 53.94 147.252L196.69 216.42C207.428 221.615 219.75 213.25 218.885 201.377Z" fill="#022676"/>
<path d="M149.07 113.75C140.408 113.465 133.17 106.825 131.948 98.0375L128.878 76L140.423 74.39C141.293 74.2875 144.935 73.955 148.205 76.485C149.505 77.485 150.6 78.85 151.54 80.88C153.38 84.855 161.17 105.457 152.65 112.092C151.595 112.905 150.372 113.471 149.07 113.75Z" fill="black"/>
<path d="M186.08 216.715H116.705L111.1 132.215C120.879 127.935 131.119 124.797 141.617 122.863C156.617 120.113 168.497 119.997 179.235 121.332C181.52 153.195 183.792 184.852 186.08 216.715Z" fill="black"/>
<path d="M148.43 112.92L145.68 105.372C148.388 105.262 150.553 102.91 150.553 100.015C150.553 97.0475 148.285 94.645 145.485 94.645C144.285 94.6481 143.128 95.093 142.235 95.895L137.058 81.6675L115.83 88.5C114.846 88.8161 113.934 89.323 113.146 89.9917C112.359 90.6605 111.71 91.4779 111.238 92.3973C110.767 93.3167 110.481 94.3201 110.397 95.35C110.313 96.38 110.433 97.4164 110.75 98.4L116.5 116.267C117.376 118.976 119.29 121.227 121.823 122.527C124.356 123.826 127.302 124.067 130.012 123.197L133.1 121.817L135.68 127.332C135.791 127.576 135.984 127.773 136.225 127.89C140.707 130.045 145.71 129.517 148.79 126.64C150.917 124.657 152.095 122.872 152.435 121.705C152.51 121.432 152.48 121.14 152.352 120.887L148.43 112.92Z" fill="white"/>
<path d="M133.105 121.828L142.41 117.578C142.472 117.551 142.541 117.546 142.606 117.563C142.671 117.581 142.728 117.621 142.767 117.675C142.807 117.73 142.826 117.796 142.823 117.864C142.819 117.931 142.793 117.995 142.747 118.045L135.147 126.195L133.105 121.828Z" fill="black"/>
<path d="M145.06 102.235C144.7 102.235 144.349 102.129 144.05 101.93C143.75 101.731 143.517 101.447 143.379 101.115C143.241 100.783 143.205 100.417 143.275 100.064C143.344 99.7117 143.517 99.3877 143.771 99.1332C144.026 98.8788 144.349 98.7054 144.702 98.6351C145.055 98.5648 145.42 98.6006 145.752 98.7381C146.085 98.8756 146.369 99.1086 146.569 99.4075C146.768 99.7064 146.875 100.058 146.875 100.418C146.875 100.899 146.684 101.361 146.344 101.702C146.003 102.043 145.542 102.234 145.06 102.235ZM145.06 99.6025C144.898 99.602 144.74 99.6496 144.605 99.7392C144.47 99.8289 144.365 99.9565 144.303 100.106C144.241 100.255 144.224 100.42 144.256 100.579C144.287 100.738 144.365 100.884 144.479 100.998C144.594 101.113 144.74 101.19 144.899 101.222C145.057 101.253 145.222 101.237 145.372 101.175C145.521 101.113 145.649 101.007 145.738 100.873C145.828 100.738 145.875 100.579 145.875 100.418C145.875 100.201 145.789 99.9941 145.636 99.8412C145.483 99.6884 145.276 99.6025 145.06 99.6025Z" fill="black"/>
<path d="M143.78 101.223C143.657 101.223 143.538 101.179 143.445 101.097C143.353 101.015 143.294 100.902 143.28 100.78C143.153 99.6975 143.4 98.8225 144.015 98.175C145.17 96.9575 147.195 97.07 147.28 97.075C147.413 97.0833 147.536 97.1439 147.624 97.2435C147.712 97.3432 147.757 97.4736 147.749 97.6062C147.74 97.7389 147.68 97.8627 147.58 97.9507C147.481 98.0386 147.35 98.0833 147.218 98.075C147.203 98.075 145.568 97.9875 144.738 98.865C144.333 99.2925 144.183 99.88 144.273 100.665C144.287 100.796 144.25 100.928 144.168 101.031C144.086 101.135 143.966 101.202 143.835 101.217L143.78 101.223Z" fill="black"/>
<path d="M125.357 115.225C124.712 115.233 124.073 115.087 123.495 114.8C123.386 114.731 123.308 114.622 123.278 114.497C123.247 114.372 123.266 114.239 123.33 114.128C123.395 114.016 123.5 113.934 123.624 113.898C123.748 113.862 123.881 113.875 123.995 113.935C124.11 113.997 126.682 115.39 129.315 111.673C129.351 111.615 129.399 111.566 129.455 111.528C129.511 111.49 129.574 111.464 129.64 111.451C129.707 111.438 129.775 111.439 129.841 111.453C129.908 111.467 129.97 111.495 130.025 111.534C130.081 111.573 130.127 111.623 130.163 111.681C130.198 111.738 130.221 111.803 130.231 111.87C130.241 111.936 130.237 112.005 130.22 112.07C130.202 112.136 130.172 112.197 130.13 112.25C128.422 114.662 126.642 115.225 125.357 115.225Z" fill="black"/>
<path d="M128.427 101.84C129.032 101.84 129.522 101.35 129.522 100.745C129.522 100.14 129.032 99.65 128.427 99.65C127.823 99.65 127.332 100.14 127.332 100.745C127.332 101.35 127.823 101.84 128.427 101.84Z" fill="black"/>
<path d="M115.61 106.478C116.215 106.478 116.705 105.987 116.705 105.383C116.705 104.778 116.215 104.288 115.61 104.288C115.005 104.288 114.515 104.778 114.515 105.383C114.515 105.987 115.005 106.478 115.61 106.478Z" fill="black"/>
<path d="M115.332 111.378C112.82 111.378 110.487 109.352 109.885 106.465C109.205 103.215 110.972 100.085 113.822 99.4875C114.528 99.3477 115.256 99.3632 115.954 99.5328C116.653 99.7025 117.307 100.022 117.87 100.47C119.09 101.424 119.927 102.784 120.227 104.302C120.561 105.814 120.339 107.396 119.602 108.757C119.266 109.394 118.796 109.949 118.223 110.384C117.651 110.82 116.99 111.126 116.287 111.28C115.973 111.345 115.653 111.377 115.332 111.378ZM114.785 100.378C114.533 100.379 114.282 100.405 114.035 100.457C111.722 100.94 110.302 103.54 110.87 106.25C111.437 108.96 113.78 110.773 116.09 110.29C116.652 110.165 117.18 109.918 117.637 109.568C118.094 109.217 118.469 108.771 118.735 108.26C119.352 107.109 119.535 105.775 119.25 104.5C119.003 103.213 118.299 102.059 117.267 101.25C116.557 100.697 115.685 100.394 114.785 100.387V100.378Z" fill="black"/>
<path d="M120.165 104.5C120.046 104.499 119.932 104.456 119.842 104.379C119.752 104.301 119.693 104.194 119.675 104.077C119.656 103.96 119.68 103.84 119.742 103.739C119.804 103.638 119.9 103.562 120.012 103.525L124.527 102.07C124.651 102.039 124.781 102.057 124.891 102.118C125.002 102.18 125.085 102.282 125.124 102.402C125.163 102.523 125.154 102.654 125.1 102.769C125.046 102.883 124.95 102.973 124.832 103.02L120.32 104.477C120.27 104.492 120.217 104.5 120.165 104.5Z" fill="black"/>
<path d="M122.41 109.835C122.155 109.842 121.902 109.793 121.667 109.691C121.433 109.59 121.224 109.438 121.055 109.247C120.555 108.64 120.64 107.808 120.877 107.28C121.047 106.91 121.322 106.599 121.667 106.385L119.61 100.885C119.572 100.763 119.582 100.631 119.639 100.517C119.695 100.402 119.793 100.313 119.912 100.269C120.032 100.224 120.164 100.226 120.282 100.276C120.399 100.326 120.493 100.418 120.545 100.535L122.945 106.933L122.445 107.098C122.301 107.145 122.169 107.221 122.055 107.32C121.941 107.42 121.848 107.541 121.782 107.677C121.692 107.875 121.585 108.32 121.812 108.59C122.04 108.86 122.562 108.94 123.047 108.628C123.102 108.587 123.165 108.558 123.231 108.543C123.297 108.528 123.366 108.526 123.433 108.538C123.499 108.55 123.563 108.575 123.62 108.613C123.677 108.65 123.725 108.699 123.762 108.756C123.8 108.813 123.825 108.876 123.837 108.943C123.848 109.01 123.846 109.079 123.831 109.145C123.815 109.211 123.786 109.274 123.746 109.328C123.705 109.383 123.654 109.428 123.595 109.463C123.244 109.699 122.833 109.828 122.41 109.835Z" fill="black"/>
<path d="M126.268 90.2403C132.596 88.9172 136.931 84.0463 135.952 79.3607C134.972 74.6751 129.048 71.9492 122.72 73.2723C116.393 74.5953 112.057 79.4663 113.037 84.1519C114.017 88.8375 119.941 91.5634 126.268 90.2403Z" fill="black"/>
<path d="M145.57 90.2775L139.297 91.9075C137.59 92.3507 135.777 92.0977 134.256 91.2042C132.735 90.3106 131.631 88.8496 131.187 87.1425L129.865 82.0525L142.575 78.75L145.57 90.2775Z" fill="black"/>
<path d="M110.35 96.6625C115.078 96.6625 118.91 92.8301 118.91 88.1025C118.91 83.375 115.078 79.5425 110.35 79.5425C105.622 79.5425 101.79 83.375 101.79 88.1025C101.79 92.8301 105.622 96.6625 110.35 96.6625Z" fill="black"/>
<path d="M133.695 99.64C133.579 99.6403 133.466 99.5999 133.376 99.5258C133.286 99.4517 133.225 99.3485 133.203 99.2341C133.181 99.1197 133.199 99.0013 133.256 98.8992C133.312 98.7971 133.402 98.7178 133.51 98.675L142.87 94.925C142.932 94.8965 142.998 94.8809 143.066 94.879C143.134 94.8772 143.202 94.8892 143.265 94.9144C143.328 94.9395 143.385 94.9772 143.433 95.0252C143.481 95.0732 143.519 95.1305 143.544 95.1936C143.569 95.2567 143.581 95.3242 143.58 95.3921C143.578 95.46 143.562 95.5268 143.534 95.5884C143.505 95.6501 143.465 95.7053 143.414 95.7507C143.364 95.7961 143.304 95.8307 143.24 95.8525L133.88 99.6025C133.821 99.626 133.758 99.6387 133.695 99.64Z" fill="black"/>
<path d="M98.35 179.318L96.1625 208.533L96.93 215.7H116.637L114.293 180.337L98.35 179.318Z" fill="white"/>
<path d="M117.173 216.2H96.48L95.6625 208.54L97.89 178.79L114.762 179.867L117.173 216.2ZM97.38 215.2H116.103L113.823 180.807L98.8225 179.848L96.665 208.525L97.38 215.2Z" fill="black"/>
<path d="M111.1 132.217C110.261 132.557 109.454 132.97 108.688 133.452C102.963 137.062 101.078 143.702 99.6275 150.18C98.0875 157.067 95.82 172.912 95.025 185.217C101.235 185.612 108.485 186.01 114.695 186.408L111.1 132.217Z" fill="black"/>
<path d="M105.562 156.775H45.61C45.4774 156.775 45.3502 156.722 45.2564 156.629C45.1627 156.535 45.11 156.408 45.11 156.275C45.11 156.142 45.1627 156.015 45.2564 155.921C45.3502 155.828 45.4774 155.775 45.61 155.775H105.562C105.695 155.775 105.822 155.828 105.916 155.921C106.01 156.015 106.062 156.142 106.062 156.275C106.062 156.408 106.01 156.535 105.916 156.629C105.822 156.722 105.695 156.775 105.562 156.775Z" fill="black"/>
<path d="M76.0725 156.5H51.1925C50.6912 156.499 50.2106 156.3 49.8559 155.946C49.5012 155.592 49.3013 155.111 49.3 154.61V151.072C49.3007 150.571 49.5003 150.09 49.855 149.735C50.2098 149.38 50.6908 149.181 51.1925 149.18H76.0725C76.5742 149.181 77.0552 149.38 77.41 149.735C77.7647 150.09 77.9643 150.571 77.965 151.072V154.613C77.963 155.113 77.7628 155.593 77.4082 155.947C77.0536 156.3 76.5734 156.499 76.0725 156.5ZM51.1925 150.178C51.0753 150.178 50.9592 150.201 50.851 150.245C50.7427 150.29 50.6443 150.356 50.5614 150.439C50.4785 150.522 50.4128 150.62 50.3679 150.728C50.3231 150.837 50.3 150.953 50.3 151.07V154.61C50.3007 154.846 50.395 155.073 50.5623 155.239C50.7296 155.406 50.9562 155.5 51.1925 155.5H76.0725C76.3088 155.5 76.5354 155.406 76.7027 155.239C76.87 155.073 76.9643 154.846 76.965 154.61V151.072C76.965 150.836 76.871 150.609 76.7036 150.441C76.5362 150.274 76.3092 150.18 76.0725 150.18L51.1925 150.178Z" fill="black"/>
<path d="M76.07 142.958H51.1925C50.4234 142.958 49.8 143.581 49.8 144.35V147.887C49.8 148.657 50.4234 149.28 51.1925 149.28H76.07C76.8391 149.28 77.4625 148.657 77.4625 147.887V144.35C77.4625 143.581 76.8391 142.958 76.07 142.958Z" fill="#FFBB45"/>
<path d="M82.605 156.375H79.0625C78.5614 156.374 78.0811 156.175 77.7268 155.821C77.3725 155.466 77.1732 154.986 77.1725 154.485V133.883C77.1732 133.381 77.3725 132.901 77.7268 132.547C78.0811 132.192 78.5614 131.993 79.0625 131.992H82.605C83.1061 131.993 83.5864 132.192 83.9407 132.547C84.295 132.901 84.4943 133.381 84.495 133.883V154.485C84.4943 154.986 84.295 155.466 83.9407 155.821C83.5864 156.175 83.1061 156.374 82.605 156.375ZM79.0625 133C78.8267 133.001 78.6007 133.095 78.4339 133.261C78.2671 133.428 78.1732 133.654 78.1725 133.89V154.492C78.1732 154.728 78.2671 154.954 78.4339 155.121C78.6007 155.288 78.8267 155.382 79.0625 155.383H82.605C82.8408 155.382 83.0668 155.288 83.2336 155.121C83.4004 154.954 83.4943 154.728 83.495 154.492V133.883C83.4943 133.647 83.4004 133.421 83.2336 133.254C83.0668 133.087 82.8408 132.993 82.605 132.992L79.0625 133Z" fill="black"/>
<path d="M89.37 132.492H85.8325C85.0634 132.492 84.44 133.116 84.44 133.885V154.485C84.44 155.254 85.0634 155.878 85.8325 155.878H89.37C90.1391 155.878 90.7625 155.254 90.7625 154.485V133.885C90.7625 133.116 90.1391 132.492 89.37 132.492Z" fill="#BC56EC"/>
<path d="M141.805 135.378C138.487 135.346 135.247 134.373 132.46 132.573C132.355 132.498 132.282 132.385 132.258 132.258C132.234 132.131 132.26 132 132.33 131.892C132.4 131.784 132.51 131.707 132.636 131.678C132.762 131.648 132.894 131.669 133.005 131.735C134.558 132.735 138.755 135.015 144.063 134.208C151.38 133.098 155.005 127.155 155.658 125.975C155.688 125.915 155.73 125.861 155.781 125.818C155.832 125.774 155.892 125.741 155.956 125.721C156.02 125.701 156.088 125.695 156.155 125.701C156.222 125.708 156.287 125.729 156.346 125.761C156.405 125.794 156.457 125.838 156.498 125.891C156.54 125.944 156.57 126.005 156.588 126.07C156.605 126.135 156.609 126.202 156.6 126.269C156.59 126.336 156.567 126.4 156.533 126.458C155.84 127.708 151.993 134.015 144.213 135.195C143.416 135.317 142.611 135.378 141.805 135.378Z" fill="white"/>
<path d="M123.644 138.348L112.187 141.365C110.675 141.763 109.772 143.311 110.17 144.822L116.313 168.154C116.711 169.666 118.259 170.569 119.771 170.171L131.228 167.154C132.739 166.756 133.642 165.208 133.244 163.697L127.101 140.365C126.703 138.853 125.155 137.95 123.644 138.348Z" fill="#BC56EC"/>
<path d="M123.417 142.421L123.227 142.463C122.612 142.601 122.224 143.213 122.362 143.828L123.482 148.819C123.62 149.435 124.231 149.822 124.847 149.684L125.037 149.641C125.652 149.503 126.04 148.892 125.902 148.277L124.782 143.286C124.644 142.67 124.033 142.283 123.417 142.421Z" fill="white"/>
<path d="M129.25 106.165C126.75 106.165 124.452 104.22 123.87 101.438C123.217 98.29 125 95.25 127.855 94.65C130.71 94.05 133.562 96.1275 134.22 99.275C134.877 102.423 133.092 105.468 130.24 106.063C129.915 106.132 129.583 106.166 129.25 106.165ZM128.837 95.5475C128.575 95.5469 128.312 95.5737 128.055 95.6275C125.742 96.1125 124.305 98.6275 124.85 101.233C125.395 103.838 127.717 105.568 130.03 105.085C132.342 104.603 133.78 102.085 133.235 99.48C132.75 97.1675 130.875 95.5475 128.842 95.5475H128.837Z" fill="black"/>
<path d="M175.613 169.4L114.195 176.512L113.465 167.833L173.825 160.702L175.613 169.4Z" fill="#735BBE"/>
<path d="M179.99 188.482L114.835 195.85L114.207 186.465L177.937 179.03L179.99 188.482Z" fill="#735BBE"/>
<path d="M135.23 158.475C135.23 158.475 127.045 159.2 122.775 151.867C122.374 151.176 121.828 150.579 121.175 150.117C120.053 149.327 118.372 148.832 116.637 150.815C116.637 150.815 113.818 147.082 111.735 149.215C111.735 149.215 110.25 151.097 112.235 154.27C112.235 154.27 109.063 155.587 112.205 161.135C112.688 161.987 113.157 162.847 113.575 163.732C115.265 167.297 121.275 177.42 135.6 178.89C136.534 178.99 137.42 179.355 138.152 179.942L172.112 206.905C175.241 209.412 178.895 211.18 182.802 212.077C188.393 213.327 198.455 212.673 203.662 205.412C206.72 201.089 208.041 195.774 207.362 190.522L205.785 177.697L177.5 182.332L148.947 164.43C147.994 163.83 147.218 162.987 146.697 161.987C145.04 158.825 140.865 151.487 136.232 148.295C136.072 148.185 135.915 148.077 135.76 147.962C134.76 147.212 133.51 146.592 132.247 146.572C130.247 146.542 128.552 148.39 129.787 150.265C130.33 151.09 131.203 151.765 132.01 152.32C132.847 152.89 133.56 153.624 134.103 154.479C134.646 155.333 135.009 156.29 135.17 157.29C135.229 157.682 135.25 158.079 135.23 158.475Z" fill="white"/>
<path d="M126.35 163.685C126.274 163.685 126.198 163.667 126.13 163.633C124.8 162.984 123.553 162.177 122.417 161.227C118.57 158 116.887 153.847 116.152 150.932C116.119 150.804 116.139 150.667 116.206 150.553C116.274 150.439 116.384 150.356 116.512 150.322C116.641 150.289 116.778 150.309 116.892 150.376C117.006 150.444 117.089 150.554 117.122 150.682C117.82 153.455 119.417 157.4 123.06 160.458C124.13 161.354 125.305 162.117 126.56 162.73C126.662 162.779 126.744 162.862 126.793 162.964C126.842 163.067 126.855 163.182 126.829 163.293C126.804 163.403 126.741 163.502 126.652 163.572C126.563 163.642 126.453 163.68 126.34 163.68L126.35 163.685Z" fill="black"/>
<path d="M123.14 167.91C123.063 167.911 122.986 167.893 122.918 167.858C122.247 167.556 121.622 167.16 121.063 166.682C120.87 166.528 120.628 166.335 120.313 166.08C116.563 163.178 113.617 159.155 111.777 154.447C111.75 154.386 111.736 154.319 111.735 154.252C111.734 154.184 111.746 154.117 111.772 154.055C111.798 153.992 111.836 153.936 111.884 153.889C111.932 153.841 111.989 153.804 112.052 153.779C112.115 153.755 112.182 153.743 112.249 153.745C112.317 153.747 112.383 153.763 112.444 153.791C112.506 153.819 112.561 153.86 112.606 153.91C112.651 153.96 112.686 154.019 112.707 154.083C114.485 158.623 117.325 162.497 120.925 165.29C121.258 165.54 121.503 165.745 121.698 165.903C122.202 166.337 122.767 166.695 123.375 166.965C123.475 167.016 123.554 167.099 123.601 167.201C123.648 167.302 123.659 167.417 123.633 167.526C123.608 167.635 123.546 167.732 123.458 167.801C123.37 167.871 123.262 167.909 123.15 167.91H123.14Z" fill="black"/>
<path d="M137.735 216.705H95.7V207.633H137.735C138.294 207.633 138.829 207.855 139.224 208.251C139.62 208.646 139.842 209.181 139.842 209.74V214.6C139.842 215.159 139.62 215.694 139.224 216.089C138.829 216.483 138.294 216.705 137.735 216.705Z" fill="black"/>
<path d="M100.435 216.705H51.2625C50.3463 216.714 49.4517 216.427 48.7119 215.887C47.9722 215.346 47.4269 214.581 47.1575 213.705L35.115 172.88C34.335 170.235 36.3825 167.6 39.22 167.6H85.6C86.5564 167.591 87.4879 167.905 88.2437 168.491C88.9995 169.078 89.5355 169.901 89.765 170.83L100.435 216.705Z" fill="black"/>
<path d="M64.7225 202.84C68.4863 202.84 71.5375 199.789 71.5375 196.025C71.5375 192.261 68.4863 189.21 64.7225 189.21C60.9587 189.21 57.9075 192.261 57.9075 196.025C57.9075 199.789 60.9587 202.84 64.7225 202.84Z" fill="#BC56EC"/>
<path d="M63.225 191.163C63.113 191.162 63.0043 191.124 62.9164 191.055C62.8284 190.986 62.7663 190.889 62.74 190.78L61.925 187.443C61.9094 187.379 61.9065 187.312 61.9166 187.247C61.9266 187.182 61.9493 187.12 61.9834 187.064C62.0176 187.008 62.0624 186.959 62.1155 186.92C62.1685 186.881 62.2286 186.853 62.2925 186.837C62.3564 186.822 62.4227 186.819 62.4876 186.829C62.5526 186.839 62.6149 186.862 62.6711 186.896C62.7273 186.93 62.7762 186.975 62.815 187.028C62.8539 187.081 62.8819 187.141 62.8975 187.205L63.71 190.542C63.7282 190.616 63.7294 190.693 63.7136 190.767C63.6977 190.841 63.6652 190.911 63.6184 190.971C63.5717 191.03 63.512 191.079 63.4438 191.112C63.3757 191.145 63.3008 191.162 63.225 191.163Z" fill="#6DC8C2"/>
<path d="M211.342 177.352L178.117 182.913L165.917 120.588L174.577 120.71C179.95 120.756 185.167 122.523 189.462 125.75C191.701 127.441 193.605 129.534 195.077 131.923C196.135 133.658 196.95 135.529 197.5 137.485L211.342 177.352Z" fill="black"/>
<path d="M225.81 105.383H189.243C186.768 105.383 184.763 107.388 184.763 109.863V133.255C184.763 135.729 186.768 137.735 189.243 137.735H225.81C228.284 137.735 230.29 135.729 230.29 133.255V109.863C230.29 107.388 228.284 105.383 225.81 105.383Z" fill="white"/>
<path d="M225.81 138.235H189.25C187.929 138.232 186.662 137.706 185.728 136.771C184.793 135.837 184.266 134.571 184.262 133.25V109.865C184.267 108.544 184.794 107.279 185.729 106.345C186.663 105.412 187.929 104.886 189.25 104.883H225.81C227.13 104.887 228.395 105.414 229.328 106.347C230.261 107.28 230.788 108.545 230.792 109.865V133.25C230.789 134.57 230.262 135.836 229.329 136.77C228.395 137.704 227.13 138.23 225.81 138.235ZM189.25 105.883C188.196 105.888 187.186 106.309 186.441 107.055C185.695 107.801 185.275 108.811 185.27 109.865V133.25C185.27 134.306 185.689 135.319 186.435 136.066C187.182 136.813 188.194 137.234 189.25 137.235H225.81C226.866 137.234 227.879 136.814 228.626 136.067C229.373 135.32 229.792 134.306 229.792 133.25V109.865C229.788 108.81 229.367 107.8 228.621 107.054C227.875 106.308 226.865 105.887 225.81 105.883H189.25Z" fill="black"/>
<path d="M224.265 116.57H210.697C210.565 116.57 210.438 116.517 210.344 116.424C210.25 116.33 210.197 116.203 210.197 116.07C210.197 115.937 210.25 115.81 210.344 115.716C210.438 115.623 210.565 115.57 210.697 115.57H224.265C224.398 115.57 224.525 115.623 224.619 115.716C224.712 115.81 224.765 115.937 224.765 116.07C224.765 116.203 224.712 116.33 224.619 116.424C224.525 116.517 224.398 116.57 224.265 116.57Z" fill="black"/>
<path d="M224.265 122.06H210.697C210.565 122.06 210.438 122.007 210.344 121.914C210.25 121.82 210.197 121.693 210.197 121.56C210.197 121.427 210.25 121.3 210.344 121.206C210.438 121.113 210.565 121.06 210.697 121.06H224.265C224.398 121.06 224.525 121.113 224.619 121.206C224.712 121.3 224.765 121.427 224.765 121.56C224.765 121.693 224.712 121.82 224.619 121.914C224.525 122.007 224.398 122.06 224.265 122.06Z" fill="black"/>
<path d="M219.53 127.548H210.697C210.565 127.548 210.438 127.495 210.344 127.401C210.25 127.307 210.197 127.18 210.197 127.048C210.197 126.915 210.25 126.788 210.344 126.694C210.438 126.6 210.565 126.548 210.697 126.548H219.53C219.663 126.548 219.79 126.6 219.884 126.694C219.977 126.788 220.03 126.915 220.03 127.048C220.03 127.18 219.977 127.307 219.884 127.401C219.79 127.495 219.663 127.548 219.53 127.548Z" fill="black"/>
<path d="M185.373 187.038C185.285 187.04 185.199 187.018 185.123 186.975L177.685 182.87C177.574 182.803 177.494 182.696 177.461 182.571C177.427 182.447 177.443 182.314 177.506 182.201C177.568 182.088 177.672 182.003 177.795 181.965C177.919 181.926 178.052 181.937 178.168 181.995L185.605 186.1C185.703 186.154 185.779 186.239 185.823 186.342C185.867 186.444 185.875 186.559 185.846 186.666C185.817 186.774 185.753 186.869 185.664 186.936C185.575 187.004 185.467 187.039 185.355 187.038H185.373Z" fill="black"/>
<path d="M105.562 122.9H45.61C45.4774 122.9 45.3502 122.847 45.2564 122.754C45.1627 122.66 45.11 122.533 45.11 122.4C45.11 122.267 45.1627 122.14 45.2564 122.046C45.3502 121.953 45.4774 121.9 45.61 121.9H105.562C105.695 121.9 105.822 121.953 105.916 122.046C106.01 122.14 106.062 122.267 106.062 122.4C106.062 122.533 106.01 122.66 105.916 122.754C105.822 122.847 105.695 122.9 105.562 122.9Z" fill="black"/>
<path d="M87.13 121.678C92.0357 121.678 96.0125 117.701 96.0125 112.795C96.0125 107.889 92.0357 103.913 87.13 103.913C82.2243 103.913 78.2475 107.889 78.2475 112.795C78.2475 117.701 82.2243 121.678 87.13 121.678Z" fill="white"/>
<path d="M69.02 122.518H56.25C55.0695 122.516 53.9378 122.047 53.1031 121.212C52.2684 120.377 51.7988 119.245 51.7975 118.065V99.7075C51.7975 98.5262 52.2664 97.3931 53.1013 96.5573C53.9362 95.7215 55.0687 95.2513 56.25 95.25H69.0275C70.208 95.2513 71.3397 95.7209 72.1744 96.5556C73.0091 97.3903 73.4787 98.522 73.48 99.7025V118.06C73.48 118.646 73.3646 119.225 73.1405 119.766C72.9163 120.307 72.5877 120.799 72.1735 121.213C71.7594 121.627 71.2677 121.955 70.7266 122.179C70.1855 122.403 69.6056 122.518 69.02 122.518ZM56.25 96.25C55.3347 96.2513 54.4574 96.6155 53.8102 97.2627C53.163 97.9099 52.7988 98.7872 52.7975 99.7025V118.06C52.7972 118.514 52.8862 118.963 53.0595 119.382C53.2329 119.802 53.4871 120.183 53.8077 120.504C54.1283 120.825 54.509 121.08 54.928 121.254C55.3471 121.427 55.7963 121.517 56.25 121.518H69.0275C69.9428 121.516 70.8201 121.152 71.4673 120.505C72.1145 119.858 72.4787 118.98 72.48 118.065V99.7075C72.48 99.2532 72.3905 98.8034 72.2166 98.3838C72.0427 97.9642 71.7878 97.5829 71.4664 97.2618C71.1451 96.9407 70.7637 96.6861 70.3439 96.5125C69.9241 96.3389 69.4743 96.2497 69.02 96.25H56.25Z" fill="black"/>
<path d="M72.7075 115.923H52.29C52.1574 115.923 52.0302 115.87 51.9364 115.776C51.8427 115.682 51.79 115.555 51.79 115.423C51.79 115.29 51.8427 115.163 51.9364 115.069C52.0302 114.975 52.1574 114.923 52.29 114.923H72.7075C72.8401 114.923 72.9673 114.975 73.0611 115.069C73.1548 115.163 73.2075 115.29 73.2075 115.423C73.2075 115.555 73.1548 115.682 73.0611 115.776C72.9673 115.87 72.8401 115.923 72.7075 115.923Z" fill="black"/>
<path d="M60.5 120.13C61.1696 120.13 61.7125 119.587 61.7125 118.918C61.7125 118.248 61.1696 117.705 60.5 117.705C59.8304 117.705 59.2875 118.248 59.2875 118.918C59.2875 119.587 59.8304 120.13 60.5 120.13Z" fill="white"/>
<path d="M64.755 120.13C65.4246 120.13 65.9675 119.587 65.9675 118.918C65.9675 118.248 65.4246 117.705 64.755 117.705C64.0854 117.705 63.5425 118.248 63.5425 118.918C63.5425 119.587 64.0854 120.13 64.755 120.13Z" fill="white"/>
<path d="M85.2675 106.235C85.1534 106.235 85.0428 106.195 84.9541 106.123C84.8654 106.052 84.804 105.952 84.78 105.84C83.48 99.84 84.9475 95.735 86.4075 93.34C88.0025 90.7375 89.9075 89.575 89.98 89.5275C90.0937 89.4592 90.2299 89.4389 90.3586 89.471C90.4873 89.5031 90.598 89.585 90.6663 89.6988C90.7345 89.8125 90.7549 89.9486 90.7228 90.0773C90.6906 90.206 90.6087 90.3167 90.495 90.385C90.195 90.5675 83.42 94.83 85.745 105.62C85.7725 105.749 85.7477 105.884 85.676 105.995C85.6043 106.106 85.4916 106.184 85.3625 106.212C85.3316 106.223 85.2998 106.23 85.2675 106.235Z" fill="black"/>
<path d="M96.5 90.25L94.3475 89.7825C94.33 89.665 94.3075 89.5325 94.28 89.43L96.16 88.375C96.5146 88.1362 96.7665 87.7727 96.8654 87.3568C96.9644 86.9409 96.9032 86.5029 96.6941 86.13C96.4849 85.7571 96.1432 85.4765 95.7367 85.3441C95.3302 85.2116 94.8887 85.2369 94.5 85.415L92.5225 86.525C92.49 86.5425 92.465 86.565 92.435 86.585C92.34 86.515 92.2425 86.4475 92.1425 86.385L92.5775 84.3725C92.6726 83.9316 92.5887 83.4709 92.3442 83.0919C92.0997 82.7128 91.7147 82.4464 91.2738 82.3512C90.8328 82.2561 90.3722 82.34 89.9931 82.5845C89.6141 82.829 89.3477 83.2141 89.2525 83.655L88.8175 85.655C88.6492 85.6775 88.4823 85.7092 88.3175 85.75C88.2817 85.6831 88.2424 85.618 88.2 85.555L86.835 83.75C86.5635 83.39 86.1601 83.1525 85.7135 83.0899C85.2669 83.0274 84.8138 83.1447 84.4538 83.4162C84.0937 83.6878 83.8563 84.0912 83.7937 84.5377C83.7311 84.9843 83.8485 85.4375 84.12 85.7975L85.485 87.61C85.485 87.625 85.51 87.635 85.5225 87.65C85.475 87.715 85.435 87.7825 85.39 87.8475L83.3075 87.3975C82.8666 87.3024 82.406 87.3862 82.0268 87.6304C81.6476 87.8746 81.3808 88.2593 81.285 88.7C81.2376 88.9183 81.2337 89.1439 81.2735 89.3637C81.3133 89.5836 81.3961 89.7934 81.517 89.9812C81.638 90.1691 81.7948 90.3312 81.9785 90.4584C82.1622 90.5856 82.3691 90.6753 82.5875 90.7225L84.6525 91.17C84.6525 91.22 84.665 91.27 84.6725 91.32H84.655L82.675 92.43C82.2989 92.6596 82.0265 93.0262 81.9151 93.4525C81.8036 93.8789 81.8618 94.3318 82.0775 94.7161C82.2931 95.1004 82.6493 95.3862 83.0713 95.5132C83.4932 95.6403 83.948 95.5988 84.34 95.3975L86.32 94.2875C86.335 94.2875 86.345 94.2675 86.36 94.26C86.5189 94.3928 86.6859 94.5155 86.86 94.6275L86.4275 96.6275C86.3742 96.8482 86.3656 97.0774 86.4022 97.3015C86.4388 97.5256 86.5199 97.7402 86.6407 97.9325C86.7615 98.1248 86.9195 98.291 87.1055 98.4213C87.2915 98.5516 87.5016 98.6434 87.7236 98.6913C87.9456 98.7391 88.1749 98.7421 88.3981 98.7C88.6212 98.6579 88.8337 98.5716 89.023 98.4462C89.2123 98.3207 89.3745 98.1587 89.5003 97.9696C89.626 97.7804 89.7126 97.5681 89.755 97.345L90.185 95.345C90.31 95.3275 90.435 95.305 90.5575 95.2775L91.88 97.0275C92.0069 97.2222 92.1723 97.3889 92.3661 97.5172C92.5598 97.6456 92.7778 97.7329 93.0066 97.7738C93.2354 97.8148 93.4701 97.8084 93.6963 97.7552C93.9226 97.7019 94.1355 97.6029 94.322 97.4643C94.5085 97.3256 94.6647 97.1503 94.7809 96.949C94.897 96.7477 94.9708 96.5247 94.9975 96.2939C95.0243 96.063 95.0035 95.8291 94.9364 95.6066C94.8693 95.3841 94.7574 95.1776 94.6075 95L93.4325 93.4375C93.5075 93.335 93.58 93.23 93.6475 93.12L95.78 93.5825C95.9983 93.6299 96.2239 93.6338 96.4437 93.594C96.6636 93.5542 96.8734 93.4714 97.0612 93.3505C97.2491 93.2295 97.4112 93.0727 97.5384 92.889C97.6656 92.7053 97.7554 92.4984 97.8025 92.28C97.851 92.0611 97.8558 91.8348 97.8165 91.6141C97.7772 91.3934 97.6947 91.1827 97.5736 90.994C97.4525 90.8053 97.2954 90.6425 97.1111 90.5148C96.9269 90.3871 96.7192 90.2971 96.5 90.25Z" fill="#BC56EC"/>
<path d="M96.5 90.25L94.3475 89.7825C94.33 89.665 94.3075 89.5325 94.28 89.43L96.16 88.375C96.5146 88.1362 96.7665 87.7727 96.8654 87.3568C96.9644 86.9409 96.9032 86.5029 96.6941 86.13C96.4849 85.7571 96.1432 85.4765 95.7367 85.3441C95.3302 85.2116 94.8887 85.2369 94.5 85.415L92.5225 86.525C92.49 86.5425 92.465 86.565 92.435 86.585C92.34 86.515 92.2425 86.4475 92.1425 86.385L92.5775 84.3725C92.6726 83.9316 92.5887 83.4709 92.3442 83.0919C92.0997 82.7128 91.7147 82.4464 91.2738 82.3512C90.8328 82.2561 90.3722 82.34 89.9931 82.5845C89.6141 82.829 89.3477 83.2141 89.2525 83.655L88.8175 85.655C88.6492 85.6775 88.4823 85.7092 88.3175 85.75C88.2817 85.6831 88.2424 85.618 88.2 85.555L86.835 83.75C86.5635 83.39 86.1601 83.1525 85.7135 83.0899C85.2669 83.0274 84.8138 83.1447 84.4538 83.4162C84.0937 83.6878 83.8563 84.0912 83.7937 84.5377C83.7311 84.9843 83.8485 85.4375 84.12 85.7975L85.485 87.61C85.485 87.625 85.51 87.635 85.5225 87.65C85.475 87.715 85.435 87.7825 85.39 87.8475L83.3075 87.3975C82.8666 87.3024 82.406 87.3862 82.0268 87.6304C81.6476 87.8746 81.3808 88.2593 81.285 88.7C81.2376 88.9183 81.2337 89.1439 81.2735 89.3637C81.3133 89.5836 81.3961 89.7934 81.517 89.9812C81.638 90.1691 81.7948 90.3312 81.9785 90.4584C82.1622 90.5856 82.3691 90.6753 82.5875 90.7225L84.6525 91.17C84.6525 91.22 84.665 91.27 84.6725 91.32H84.655L82.675 92.43C82.2989 92.6596 82.0265 93.0262 81.9151 93.4525C81.8036 93.8789 81.8618 94.3318 82.0775 94.7161C82.2931 95.1004 82.6493 95.3862 83.0713 95.5132C83.4932 95.6403 83.948 95.5988 84.34 95.3975L86.32 94.2875C86.335 94.2875 86.345 94.2675 86.36 94.26C86.5189 94.3928 86.6859 94.5155 86.86 94.6275L86.4275 96.6275C86.3742 96.8482 86.3656 97.0774 86.4022 97.3015C86.4388 97.5256 86.5199 97.7402 86.6407 97.9325C86.7615 98.1248 86.9195 98.291 87.1055 98.4213C87.2915 98.5516 87.5016 98.6434 87.7236 98.6913C87.9456 98.7391 88.1749 98.7421 88.3981 98.7C88.6212 98.6579 88.8337 98.5716 89.023 98.4462C89.2123 98.3207 89.3745 98.1587 89.5003 97.9696C89.626 97.7804 89.7126 97.5681 89.755 97.345L90.185 95.345C90.31 95.3275 90.435 95.305 90.5575 95.2775L91.88 97.0275C92.0069 97.2222 92.1723 97.3889 92.3661 97.5172C92.5598 97.6456 92.7778 97.7329 93.0066 97.7738C93.2354 97.8148 93.4701 97.8084 93.6963 97.7552C93.9226 97.7019 94.1355 97.6029 94.322 97.4643C94.5085 97.3256 94.6647 97.1503 94.7809 96.949C94.897 96.7477 94.9708 96.5247 94.9975 96.2939C95.0243 96.063 95.0035 95.8291 94.9364 95.6066C94.8693 95.3841 94.7574 95.1776 94.6075 95L93.4325 93.4375C93.5075 93.335 93.58 93.23 93.6475 93.12L95.78 93.5825C95.9983 93.6299 96.2239 93.6338 96.4437 93.594C96.6636 93.5542 96.8734 93.4714 97.0612 93.3505C97.2491 93.2295 97.4112 93.0727 97.5384 92.889C97.6656 92.7053 97.7554 92.4984 97.8025 92.28C97.851 92.0611 97.8558 91.8348 97.8165 91.6141C97.7772 91.3934 97.6947 91.1827 97.5736 90.994C97.4525 90.8053 97.2954 90.6425 97.1111 90.5148C96.9269 90.3871 96.7192 90.2971 96.5 90.25Z" fill="#BC56EC"/>
<path d="M96.5 90.25L94.3475 89.7825C94.33 89.665 94.3075 89.5325 94.28 89.43L96.16 88.375C96.5146 88.1362 96.7665 87.7727 96.8654 87.3568C96.9644 86.9409 96.9032 86.5029 96.6941 86.13C96.4849 85.7571 96.1432 85.4765 95.7367 85.3441C95.3302 85.2116 94.8887 85.2369 94.5 85.415L92.5225 86.525C92.49 86.5425 92.465 86.565 92.435 86.585C92.34 86.515 92.2425 86.4475 92.1425 86.385L92.5775 84.3725C92.6726 83.9316 92.5887 83.4709 92.3442 83.0919C92.0997 82.7128 91.7147 82.4464 91.2738 82.3512C90.8328 82.2561 90.3722 82.34 89.9931 82.5845C89.6141 82.829 89.3477 83.2141 89.2525 83.655L88.8175 85.655C88.6492 85.6775 88.4823 85.7092 88.3175 85.75C88.2817 85.6831 88.2424 85.618 88.2 85.555L86.835 83.75C86.5635 83.39 86.1601 83.1525 85.7135 83.0899C85.2669 83.0274 84.8138 83.1447 84.4538 83.4162C84.0937 83.6878 83.8563 84.0912 83.7937 84.5377C83.7311 84.9843 83.8485 85.4375 84.12 85.7975L85.485 87.61C85.485 87.625 85.51 87.635 85.5225 87.65C85.475 87.715 85.435 87.7825 85.39 87.8475L83.3075 87.3975C82.8666 87.3024 82.406 87.3862 82.0268 87.6304C81.6476 87.8746 81.3808 88.2593 81.285 88.7C81.2376 88.9183 81.2337 89.1439 81.2735 89.3637C81.3133 89.5836 81.3961 89.7934 81.517 89.9812C81.638 90.1691 81.7948 90.3312 81.9785 90.4584C82.1622 90.5856 82.3691 90.6753 82.5875 90.7225L84.6525 91.17C84.6525 91.22 84.665 91.27 84.6725 91.32H84.655L82.675 92.43C82.2989 92.6596 82.0265 93.0262 81.9151 93.4525C81.8036 93.8789 81.8618 94.3318 82.0775 94.7161C82.2931 95.1004 82.6493 95.3862 83.0713 95.5132C83.4932 95.6403 83.948 95.5988 84.34 95.3975L86.32 94.2875C86.335 94.2875 86.345 94.2675 86.36 94.26C86.5189 94.3928 86.6859 94.5155 86.86 94.6275L86.4275 96.6275C86.3742 96.8482 86.3656 97.0774 86.4022 97.3015C86.4388 97.5256 86.5199 97.7402 86.6407 97.9325C86.7615 98.1248 86.9195 98.291 87.1055 98.4213C87.2915 98.5516 87.5016 98.6434 87.7236 98.6913C87.9456 98.7391 88.1749 98.7421 88.3981 98.7C88.6212 98.6579 88.8337 98.5716 89.023 98.4462C89.2123 98.3207 89.3745 98.1587 89.5003 97.9696C89.626 97.7804 89.7126 97.5681 89.755 97.345L90.185 95.345C90.31 95.3275 90.435 95.305 90.5575 95.2775L91.88 97.0275C92.0069 97.2222 92.1723 97.3889 92.3661 97.5172C92.5598 97.6456 92.7778 97.7329 93.0066 97.7738C93.2354 97.8148 93.4701 97.8084 93.6963 97.7552C93.9226 97.7019 94.1355 97.6029 94.322 97.4643C94.5085 97.3256 94.6647 97.1503 94.7809 96.949C94.897 96.7477 94.9708 96.5247 94.9975 96.2939C95.0243 96.063 95.0035 95.8291 94.9364 95.6066C94.8693 95.3841 94.7574 95.1776 94.6075 95L93.4325 93.4375C93.5075 93.335 93.58 93.23 93.6475 93.12L95.78 93.5825C95.9983 93.6299 96.2239 93.6338 96.4437 93.594C96.6636 93.5542 96.8734 93.4714 97.0612 93.3505C97.2491 93.2295 97.4112 93.0727 97.5384 92.889C97.6656 92.7053 97.7554 92.4984 97.8025 92.28C97.851 92.0611 97.8558 91.8348 97.8165 91.6141C97.7772 91.3934 97.6947 91.1827 97.5736 90.994C97.4525 90.8053 97.2954 90.6425 97.1111 90.5148C96.9269 90.3871 96.7192 90.2971 96.5 90.25Z" fill="#BC56EC"/>
<path d="M96.5 90.25L94.3475 89.7825C94.33 89.665 94.3075 89.5325 94.28 89.43L96.16 88.375C96.5146 88.1362 96.7665 87.7727 96.8654 87.3568C96.9644 86.9409 96.9032 86.5029 96.6941 86.13C96.4849 85.7571 96.1432 85.4765 95.7367 85.3441C95.3302 85.2116 94.8887 85.2369 94.5 85.415L92.5225 86.525C92.49 86.5425 92.465 86.565 92.435 86.585C92.34 86.515 92.2425 86.4475 92.1425 86.385L92.5775 84.3725C92.6726 83.9316 92.5887 83.4709 92.3442 83.0919C92.0997 82.7128 91.7147 82.4464 91.2738 82.3512C90.8328 82.2561 90.3722 82.34 89.9931 82.5845C89.6141 82.829 89.3477 83.2141 89.2525 83.655L88.8175 85.655C88.6492 85.6775 88.4823 85.7092 88.3175 85.75C88.2817 85.6831 88.2424 85.618 88.2 85.555L86.835 83.75C86.5635 83.39 86.1601 83.1525 85.7135 83.0899C85.2669 83.0274 84.8138 83.1447 84.4538 83.4162C84.0937 83.6878 83.8563 84.0912 83.7937 84.5377C83.7311 84.9843 83.8485 85.4375 84.12 85.7975L85.485 87.61C85.485 87.625 85.51 87.635 85.5225 87.65C85.475 87.715 85.435 87.7825 85.39 87.8475L83.3075 87.3975C82.8666 87.3024 82.406 87.3862 82.0268 87.6304C81.6476 87.8746 81.3808 88.2593 81.285 88.7C81.2376 88.9183 81.2337 89.1439 81.2735 89.3637C81.3133 89.5836 81.3961 89.7934 81.517 89.9812C81.638 90.1691 81.7948 90.3312 81.9785 90.4584C82.1622 90.5856 82.3691 90.6753 82.5875 90.7225L84.6525 91.17C84.6525 91.22 84.665 91.27 84.6725 91.32H84.655L82.675 92.43C82.2989 92.6596 82.0265 93.0262 81.9151 93.4525C81.8036 93.8789 81.8618 94.3318 82.0775 94.7161C82.2931 95.1004 82.6493 95.3862 83.0713 95.5132C83.4932 95.6403 83.948 95.5988 84.34 95.3975L86.32 94.2875C86.335 94.2875 86.345 94.2675 86.36 94.26C86.5189 94.3928 86.6859 94.5155 86.86 94.6275L86.4275 96.6275C86.3742 96.8482 86.3656 97.0774 86.4022 97.3015C86.4388 97.5256 86.5199 97.7402 86.6407 97.9325C86.7615 98.1248 86.9195 98.291 87.1055 98.4213C87.2915 98.5516 87.5016 98.6434 87.7236 98.6913C87.9456 98.7391 88.1749 98.7421 88.3981 98.7C88.6212 98.6579 88.8337 98.5716 89.023 98.4462C89.2123 98.3207 89.3745 98.1587 89.5003 97.9696C89.626 97.7804 89.7126 97.5681 89.755 97.345L90.185 95.345C90.31 95.3275 90.435 95.305 90.5575 95.2775L91.88 97.0275C92.0069 97.2222 92.1723 97.3889 92.3661 97.5172C92.5598 97.6456 92.7778 97.7329 93.0066 97.7738C93.2354 97.8148 93.4701 97.8084 93.6963 97.7552C93.9226 97.7019 94.1355 97.6029 94.322 97.4643C94.5085 97.3256 94.6647 97.1503 94.7809 96.949C94.897 96.7477 94.9708 96.5247 94.9975 96.2939C95.0243 96.063 95.0035 95.8291 94.9364 95.6066C94.8693 95.3841 94.7574 95.1776 94.6075 95L93.4325 93.4375C93.5075 93.335 93.58 93.23 93.6475 93.12L95.78 93.5825C95.9983 93.6299 96.2239 93.6338 96.4437 93.594C96.6636 93.5542 96.8734 93.4714 97.0612 93.3505C97.2491 93.2295 97.4112 93.0727 97.5384 92.889C97.6656 92.7053 97.7554 92.4984 97.8025 92.28C97.851 92.0611 97.8558 91.8348 97.8165 91.6141C97.7772 91.3934 97.6947 91.1827 97.5736 90.994C97.4525 90.8053 97.2954 90.6425 97.1111 90.5148C96.9269 90.3871 96.7192 90.2971 96.5 90.25Z" fill="#BC56EC"/>
<path d="M96.5 90.25L94.3475 89.7825C94.33 89.665 94.3075 89.5325 94.28 89.43L96.16 88.375C96.5146 88.1362 96.7665 87.7727 96.8654 87.3568C96.9644 86.9409 96.9032 86.5029 96.6941 86.13C96.4849 85.7571 96.1432 85.4765 95.7367 85.3441C95.3302 85.2116 94.8887 85.2369 94.5 85.415L92.5225 86.525C92.49 86.5425 92.465 86.565 92.435 86.585C92.34 86.515 92.2425 86.4475 92.1425 86.385L92.5775 84.3725C92.6726 83.9316 92.5887 83.4709 92.3442 83.0919C92.0997 82.7128 91.7147 82.4464 91.2738 82.3512C90.8328 82.2561 90.3722 82.34 89.9931 82.5845C89.6141 82.829 89.3477 83.2141 89.2525 83.655L88.8175 85.655C88.6492 85.6775 88.4823 85.7092 88.3175 85.75C88.2817 85.6831 88.2424 85.618 88.2 85.555L86.835 83.75C86.5635 83.39 86.1601 83.1525 85.7135 83.0899C85.2669 83.0274 84.8138 83.1447 84.4538 83.4162C84.0937 83.6878 83.8563 84.0912 83.7937 84.5377C83.7311 84.9843 83.8485 85.4375 84.12 85.7975L85.485 87.61C85.485 87.625 85.51 87.635 85.5225 87.65C85.475 87.715 85.435 87.7825 85.39 87.8475L83.3075 87.3975C82.8666 87.3024 82.406 87.3862 82.0268 87.6304C81.6476 87.8746 81.3808 88.2593 81.285 88.7C81.2376 88.9183 81.2337 89.1439 81.2735 89.3637C81.3133 89.5836 81.3961 89.7934 81.517 89.9812C81.638 90.1691 81.7948 90.3312 81.9785 90.4584C82.1622 90.5856 82.3691 90.6753 82.5875 90.7225L84.6525 91.17C84.6525 91.22 84.665 91.27 84.6725 91.32H84.655L82.675 92.43C82.2989 92.6596 82.0265 93.0262 81.9151 93.4525C81.8036 93.8789 81.8618 94.3318 82.0775 94.7161C82.2931 95.1004 82.6493 95.3862 83.0713 95.5132C83.4932 95.6403 83.948 95.5988 84.34 95.3975L86.32 94.2875C86.335 94.2875 86.345 94.2675 86.36 94.26C86.5189 94.3928 86.6859 94.5155 86.86 94.6275L86.4275 96.6275C86.3742 96.8482 86.3656 97.0774 86.4022 97.3015C86.4388 97.5256 86.5199 97.7402 86.6407 97.9325C86.7615 98.1248 86.9195 98.291 87.1055 98.4213C87.2915 98.5516 87.5016 98.6434 87.7236 98.6913C87.9456 98.7391 88.1749 98.7421 88.3981 98.7C88.6212 98.6579 88.8337 98.5716 89.023 98.4462C89.2123 98.3207 89.3745 98.1587 89.5003 97.9696C89.626 97.7804 89.7126 97.5681 89.755 97.345L90.185 95.345C90.31 95.3275 90.435 95.305 90.5575 95.2775L91.88 97.0275C92.0069 97.2222 92.1723 97.3889 92.3661 97.5172C92.5598 97.6456 92.7778 97.7329 93.0066 97.7738C93.2354 97.8148 93.4701 97.8084 93.6963 97.7552C93.9226 97.7019 94.1355 97.6029 94.322 97.4643C94.5085 97.3256 94.6647 97.1503 94.7809 96.949C94.897 96.7477 94.9708 96.5247 94.9975 96.2939C95.0243 96.063 95.0035 95.8291 94.9364 95.6066C94.8693 95.3841 94.7574 95.1776 94.6075 95L93.4325 93.4375C93.5075 93.335 93.58 93.23 93.6475 93.12L95.78 93.5825C95.9983 93.6299 96.2239 93.6338 96.4437 93.594C96.6636 93.5542 96.8734 93.4714 97.0612 93.3505C97.2491 93.2295 97.4112 93.0727 97.5384 92.889C97.6656 92.7053 97.7554 92.4984 97.8025 92.28C97.851 92.0611 97.8558 91.8348 97.8165 91.6141C97.7772 91.3934 97.6947 91.1827 97.5736 90.994C97.4525 90.8053 97.2954 90.6425 97.1111 90.5148C96.9269 90.3871 96.7192 90.2971 96.5 90.25Z" fill="#BC56EC"/>
<path d="M96.5 90.25L94.3475 89.7825C94.33 89.665 94.3075 89.5325 94.28 89.43L96.16 88.375C96.5146 88.1362 96.7665 87.7727 96.8654 87.3568C96.9644 86.9409 96.9032 86.5029 96.6941 86.13C96.4849 85.7571 96.1432 85.4765 95.7367 85.3441C95.3302 85.2116 94.8887 85.2369 94.5 85.415L92.5225 86.525C92.49 86.5425 92.465 86.565 92.435 86.585C92.34 86.515 92.2425 86.4475 92.1425 86.385L92.5775 84.3725C92.6726 83.9316 92.5887 83.4709 92.3442 83.0919C92.0997 82.7128 91.7147 82.4464 91.2738 82.3512C90.8328 82.2561 90.3722 82.34 89.9931 82.5845C89.6141 82.829 89.3477 83.2141 89.2525 83.655L88.8175 85.655C88.6492 85.6775 88.4823 85.7092 88.3175 85.75C88.2817 85.6831 88.2424 85.618 88.2 85.555L86.835 83.75C86.5635 83.39 86.1601 83.1525 85.7135 83.0899C85.2669 83.0274 84.8138 83.1447 84.4538 83.4162C84.0937 83.6878 83.8563 84.0912 83.7937 84.5377C83.7311 84.9843 83.8485 85.4375 84.12 85.7975L85.485 87.61C85.485 87.625 85.51 87.635 85.5225 87.65C85.475 87.715 85.435 87.7825 85.39 87.8475L83.3075 87.3975C82.8666 87.3024 82.406 87.3862 82.0268 87.6304C81.6476 87.8746 81.3808 88.2593 81.285 88.7C81.2376 88.9183 81.2337 89.1439 81.2735 89.3637C81.3133 89.5836 81.3961 89.7934 81.517 89.9812C81.638 90.1691 81.7948 90.3312 81.9785 90.4584C82.1622 90.5856 82.3691 90.6753 82.5875 90.7225L84.6525 91.17C84.6525 91.22 84.665 91.27 84.6725 91.32H84.655L82.675 92.43C82.2989 92.6596 82.0265 93.0262 81.9151 93.4525C81.8036 93.8789 81.8618 94.3318 82.0775 94.7161C82.2931 95.1004 82.6493 95.3862 83.0713 95.5132C83.4932 95.6403 83.948 95.5988 84.34 95.3975L86.32 94.2875C86.335 94.2875 86.345 94.2675 86.36 94.26C86.5189 94.3928 86.6859 94.5155 86.86 94.6275L86.4275 96.6275C86.3742 96.8482 86.3656 97.0774 86.4022 97.3015C86.4388 97.5256 86.5199 97.7402 86.6407 97.9325C86.7615 98.1248 86.9195 98.291 87.1055 98.4213C87.2915 98.5516 87.5016 98.6434 87.7236 98.6913C87.9456 98.7391 88.1749 98.7421 88.3981 98.7C88.6212 98.6579 88.8337 98.5716 89.023 98.4462C89.2123 98.3207 89.3745 98.1587 89.5003 97.9696C89.626 97.7804 89.7126 97.5681 89.755 97.345L90.185 95.345C90.31 95.3275 90.435 95.305 90.5575 95.2775L91.88 97.0275C92.0069 97.2222 92.1723 97.3889 92.3661 97.5172C92.5598 97.6456 92.7778 97.7329 93.0066 97.7738C93.2354 97.8148 93.4701 97.8084 93.6963 97.7552C93.9226 97.7019 94.1355 97.6029 94.322 97.4643C94.5085 97.3256 94.6647 97.1503 94.7809 96.949C94.897 96.7477 94.9708 96.5247 94.9975 96.2939C95.0243 96.063 95.0035 95.8291 94.9364 95.6066C94.8693 95.3841 94.7574 95.1776 94.6075 95L93.4325 93.4375C93.5075 93.335 93.58 93.23 93.6475 93.12L95.78 93.5825C95.9983 93.6299 96.2239 93.6338 96.4437 93.594C96.6636 93.5542 96.8734 93.4714 97.0612 93.3505C97.2491 93.2295 97.4112 93.0727 97.5384 92.889C97.6656 92.7053 97.7554 92.4984 97.8025 92.28C97.851 92.0611 97.8558 91.8348 97.8165 91.6141C97.7772 91.3934 97.6947 91.1827 97.5736 90.994C97.4525 90.8053 97.2954 90.6425 97.1111 90.5148C96.9269 90.3871 96.7192 90.2971 96.5 90.25Z" fill="#BC56EC"/>
<path d="M96.5 90.25L94.3475 89.7825C94.33 89.665 94.3075 89.5325 94.28 89.43L96.16 88.375C96.5146 88.1362 96.7665 87.7727 96.8654 87.3568C96.9644 86.9409 96.9032 86.5029 96.6941 86.13C96.4849 85.7571 96.1432 85.4765 95.7367 85.3441C95.3302 85.2116 94.8887 85.2369 94.5 85.415L92.5225 86.525C92.49 86.5425 92.465 86.565 92.435 86.585C92.34 86.515 92.2425 86.4475 92.1425 86.385L92.5775 84.3725C92.6726 83.9316 92.5887 83.4709 92.3442 83.0919C92.0997 82.7128 91.7147 82.4464 91.2738 82.3512C90.8328 82.2561 90.3722 82.34 89.9931 82.5845C89.6141 82.829 89.3477 83.2141 89.2525 83.655L88.8175 85.655C88.6492 85.6775 88.4823 85.7092 88.3175 85.75C88.2817 85.6831 88.2424 85.618 88.2 85.555L86.835 83.75C86.5635 83.39 86.1601 83.1525 85.7135 83.0899C85.2669 83.0274 84.8138 83.1447 84.4538 83.4162C84.0937 83.6878 83.8563 84.0912 83.7937 84.5377C83.7311 84.9843 83.8485 85.4375 84.12 85.7975L85.485 87.61C85.485 87.625 85.51 87.635 85.5225 87.65C85.475 87.715 85.435 87.7825 85.39 87.8475L83.3075 87.3975C82.8666 87.3024 82.406 87.3862 82.0268 87.6304C81.6476 87.8746 81.3808 88.2593 81.285 88.7C81.2376 88.9183 81.2337 89.1439 81.2735 89.3637C81.3133 89.5836 81.3961 89.7934 81.517 89.9812C81.638 90.1691 81.7948 90.3312 81.9785 90.4584C82.1622 90.5856 82.3691 90.6753 82.5875 90.7225L84.6525 91.17C84.6525 91.22 84.665 91.27 84.6725 91.32H84.655L82.675 92.43C82.2989 92.6596 82.0265 93.0262 81.9151 93.4525C81.8036 93.8789 81.8618 94.3318 82.0775 94.7161C82.2931 95.1004 82.6493 95.3862 83.0713 95.5132C83.4932 95.6403 83.948 95.5988 84.34 95.3975L86.32 94.2875C86.335 94.2875 86.345 94.2675 86.36 94.26C86.5189 94.3928 86.6859 94.5155 86.86 94.6275L86.4275 96.6275C86.3742 96.8482 86.3656 97.0774 86.4022 97.3015C86.4388 97.5256 86.5199 97.7402 86.6407 97.9325C86.7615 98.1248 86.9195 98.291 87.1055 98.4213C87.2915 98.5516 87.5016 98.6434 87.7236 98.6913C87.9456 98.7391 88.1749 98.7421 88.3981 98.7C88.6212 98.6579 88.8337 98.5716 89.023 98.4462C89.2123 98.3207 89.3745 98.1587 89.5003 97.9696C89.626 97.7804 89.7126 97.5681 89.755 97.345L90.185 95.345C90.31 95.3275 90.435 95.305 90.5575 95.2775L91.88 97.0275C92.0069 97.2222 92.1723 97.3889 92.3661 97.5172C92.5598 97.6456 92.7778 97.7329 93.0066 97.7738C93.2354 97.8148 93.4701 97.8084 93.6963 97.7552C93.9226 97.7019 94.1355 97.6029 94.322 97.4643C94.5085 97.3256 94.6647 97.1503 94.7809 96.949C94.897 96.7477 94.9708 96.5247 94.9975 96.2939C95.0243 96.063 95.0035 95.8291 94.9364 95.6066C94.8693 95.3841 94.7574 95.1776 94.6075 95L93.4325 93.4375C93.5075 93.335 93.58 93.23 93.6475 93.12L95.78 93.5825C95.9983 93.6299 96.2239 93.6338 96.4437 93.594C96.6636 93.5542 96.8734 93.4714 97.0612 93.3505C97.2491 93.2295 97.4112 93.0727 97.5384 92.889C97.6656 92.7053 97.7554 92.4984 97.8025 92.28C97.851 92.0611 97.8558 91.8348 97.8165 91.6141C97.7772 91.3934 97.6947 91.1827 97.5736 90.994C97.4525 90.8053 97.2954 90.6425 97.1111 90.5148C96.9269 90.3871 96.7192 90.2971 96.5 90.25Z" fill="#BC56EC"/>
<path d="M89.545 92.7575C90.789 92.7575 91.7975 91.749 91.7975 90.505C91.7975 89.261 90.789 88.2525 89.545 88.2525C88.301 88.2525 87.2925 89.261 87.2925 90.505C87.2925 91.749 88.301 92.7575 89.545 92.7575Z" fill="white"/>
<path d="M85.719 108.216C86.9099 108.013 87.741 107.061 87.5752 106.089C87.4095 105.117 86.3096 104.494 85.1187 104.697C83.9278 104.9 83.0967 105.853 83.2625 106.824C83.4283 107.796 84.5281 108.419 85.719 108.216Z" fill="black"/>
<path d="M82.7325 120.167C82.6244 120.167 82.5193 120.131 82.4331 120.066C82.3469 120.001 82.2842 119.909 82.2543 119.806C82.2245 119.702 82.2291 119.591 82.2675 119.49C82.306 119.389 82.3761 119.303 82.4675 119.245C83.7314 118.451 85.1732 117.986 86.6625 117.89C88.5063 117.787 90.3377 118.248 91.9125 119.212C92.0234 119.283 92.1021 119.394 92.1318 119.522C92.1614 119.65 92.1396 119.784 92.071 119.896C92.0024 120.008 91.8925 120.088 91.7651 120.12C91.6377 120.152 91.503 120.132 91.39 120.065C89.9896 119.208 88.3616 118.799 86.7225 118.89C85.401 118.975 84.1215 119.388 83 120.092C82.9194 120.142 82.8269 120.168 82.7325 120.167Z" fill="black"/>
<ellipse cx="133.5" cy="242" rx="81.5" ry="8" fill="#184294"/>
<path d="M194.222 125.784V120.126C194.22 120.024 194.246 119.924 194.297 119.836C194.347 119.748 194.421 119.675 194.51 119.626C195.3 119.184 197.472 117.711 197.725 114.729C197.817 113.651 198.29 113.144 198.787 113.021C199.362 112.881 199.955 113.481 200.037 113.561C201.39 114.971 199.977 118.204 199.847 118.494L201.635 118.446C201.985 118.437 202.333 118.497 202.66 118.623C202.986 118.749 203.285 118.938 203.539 119.179C203.792 119.42 203.996 119.709 204.137 120.029C204.279 120.349 204.357 120.694 204.365 121.044L204.427 123.604C204.436 123.958 204.374 124.311 204.244 124.642C204.114 124.972 203.92 125.273 203.672 125.527C203.424 125.781 203.128 125.982 202.801 126.12C202.474 126.258 202.122 126.329 201.767 126.329H194.782C194.637 126.329 194.496 126.272 194.392 126.17C194.287 126.068 194.226 125.93 194.222 125.784Z" fill="#735BBE"/>
<path d="M194.285 118.904H192.615C192.275 118.904 192 119.179 192 119.519V126.219C192 126.558 192.275 126.834 192.615 126.834H194.285C194.625 126.834 194.9 126.558 194.9 126.219V119.519C194.9 119.179 194.625 118.904 194.285 118.904Z" fill="#BC56EC"/>
</svg>
